<svg id="svg" xmlns="http://www.w3.org/2000/svg" xmlns:xlink="http://www.w3.org/1999/xlink" width="400" height="537.2822299651568" viewBox="0, 0, 400,537.2822299651568"><g id="svgg"><path id="path0" d="M160.453 0.721 C 155.850 1.209,151.820 1.761,151.527 1.942 C 151.366 2.041,149.481 2.353,147.339 2.635 C 144.694 2.982,143.065 3.381,142.260 3.879 C 141.498 4.350,140.055 4.725,138.220 4.930 C 136.373 5.137,133.584 5.866,130.314 6.997 C 127.535 7.958,124.399 8.903,123.345 9.097 C 118.133 10.055,114.439 12.301,111.332 16.399 C 109.591 18.696,106.997 20.765,105.173 21.312 C 101.354 22.456,95.331 29.262,95.310 32.456 C 95.293 34.985,95.157 35.124,88.676 39.221 C 81.331 43.863,77.008 47.412,73.868 51.378 C 72.814 52.709,71.303 54.512,70.510 55.383 C 69.717 56.255,68.170 58.537,67.073 60.453 C 64.210 65.453,63.702 66.029,61.056 67.291 C 59.766 67.906,57.378 69.227,55.749 70.227 C 54.120 71.227,51.954 72.315,50.934 72.644 C 48.350 73.479,47.962 74.391,49.233 76.651 C 50.853 79.534,50.055 81.923,46.946 83.493 C 45.943 84.000,44.467 84.863,43.667 85.411 C 42.868 85.960,41.770 86.576,41.228 86.780 C 40.687 86.985,39.522 87.615,38.640 88.179 C 37.757 88.744,36.266 89.435,35.325 89.714 C 33.184 90.350,31.607 91.500,30.218 93.439 C 29.624 94.269,27.471 96.672,25.433 98.780 C 21.440 102.912,17.902 108.875,17.030 112.942 C 16.778 114.118,16.211 115.186,15.247 116.299 C 12.898 119.014,12.843 119.298,12.816 128.884 C 12.802 133.599,12.974 139.367,13.197 141.702 C 13.575 145.652,13.555 146.090,12.906 147.974 C 9.880 156.769,10.113 170.105,13.360 173.898 C 15.391 176.271,16.163 178.675,16.184 182.694 L 16.202 186.119 17.696 187.398 C 19.455 188.903,20.207 191.347,20.169 195.433 C 20.156 196.776,20.225 198.002,20.322 198.159 C 20.838 198.993,21.347 204.609,21.294 208.885 C 21.170 219.018,21.641 223.178,23.277 226.389 C 24.111 228.025,24.856 230.091,25.052 231.310 C 25.496 234.066,26.416 235.728,29.129 238.676 C 30.924 240.627,33.798 248.284,33.798 251.116 C 33.798 254.270,34.378 256.225,35.745 257.674 C 36.390 258.358,37.080 259.572,37.282 260.381 C 37.913 262.905,38.605 264.055,40.078 265.030 C 41.934 266.258,43.079 268.269,43.524 271.080 C 43.827 273.001,44.055 273.488,45.024 274.284 C 47.971 276.705,48.084 276.865,48.084 278.646 C 48.084 281.294,50.010 282.957,52.521 282.477 C 55.069 281.990,56.933 284.125,56.611 287.161 C 56.392 289.227,56.439 289.331,58.220 290.657 C 59.111 291.320,59.684 292.174,60.213 293.624 C 60.716 295.004,61.520 296.237,62.708 297.450 C 64.293 299.070,64.460 299.390,64.460 300.827 C 64.460 302.687,65.005 303.136,67.258 303.136 C 69.132 303.136,73.115 306.758,74.388 309.620 C 74.879 310.725,75.742 311.847,76.665 312.581 C 78.502 314.043,79.683 316.559,80.005 319.697 C 80.164 321.252,80.510 322.400,81.066 323.219 C 81.520 323.888,82.103 324.942,82.361 325.561 C 83.324 327.866,84.816 328.672,87.627 328.409 L 90.101 328.177 94.092 330.849 C 96.287 332.318,98.476 333.875,98.955 334.307 C 99.434 334.739,100.340 335.387,100.967 335.746 C 101.921 336.290,102.229 336.801,102.836 338.840 C 103.516 341.121,105.288 343.554,106.271 343.554 C 106.435 343.554,106.967 344.377,107.452 345.383 C 107.937 346.389,108.657 347.683,109.052 348.258 C 109.446 348.833,110.005 350.102,110.294 351.078 C 110.583 352.055,111.305 353.620,111.899 354.556 C 113.258 356.699,113.252 357.354,111.852 359.263 L 110.726 360.801 110.953 365.345 C 111.078 367.844,111.409 370.980,111.688 372.313 C 112.367 375.558,112.354 375.684,111.150 377.582 C 109.813 379.690,109.829 379.938,111.493 382.992 C 113.131 385.996,113.187 386.579,111.992 388.173 C 111.180 389.257,111.118 389.558,111.349 391.289 C 111.933 395.671,111.503 402.829,110.559 404.441 C 109.994 405.405,109.623 406.685,109.497 408.101 L 109.304 410.279 106.481 413.086 C 104.393 415.163,103.272 416.005,102.172 416.325 C 101.354 416.562,100.178 417.195,99.559 417.730 C 98.939 418.266,97.599 419.260,96.582 419.938 C 93.906 421.722,86.625 428.399,84.981 430.576 C 84.208 431.600,83.076 432.650,82.467 432.907 C 80.848 433.592,79.864 434.070,77.526 435.306 C 75.462 436.397,75.431 436.437,75.039 438.419 C 74.547 440.914,74.242 441.283,72.089 441.998 C 70.597 442.494,70.250 442.795,69.525 444.226 C 68.080 447.077,59.647 453.177,56.276 453.809 C 55.428 453.968,54.597 454.623,53.146 456.275 C 51.692 457.932,50.580 458.806,48.923 459.597 C 47.686 460.187,45.723 461.484,44.561 462.478 C 39.168 467.091,37.790 467.979,34.202 469.154 C 33.092 469.518,31.640 470.386,30.604 471.306 L 28.866 472.849 25.496 472.772 C 21.531 472.681,20.999 472.915,19.449 475.436 C 18.859 476.394,17.844 477.771,17.193 478.496 C 16.542 479.221,15.644 480.632,15.198 481.632 C 14.045 484.216,9.631 488.268,5.923 490.145 C 4.534 490.848,3.851 491.450,3.438 492.334 C 3.125 493.005,2.380 494.589,1.783 495.854 L 0.697 498.154 0.697 517.718 L 0.697 537.282 143.310 537.282 L 285.923 537.282 285.944 536.498 C 286.007 534.018,287.798 522.582,288.647 519.232 C 289.377 516.354,290.090 493.948,289.548 490.907 C 288.140 482.992,287.045 480.475,283.131 476.144 C 279.845 472.508,278.189 473.185,273.703 479.996 C 272.643 481.605,271.463 483.117,271.080 483.356 C 270.697 483.596,270.383 483.969,270.383 484.187 C 270.383 484.404,269.657 485.190,268.770 485.932 C 267.883 486.675,266.501 487.863,265.700 488.572 C 264.899 489.282,263.818 490.024,263.299 490.222 C 262.665 490.463,262.288 490.914,262.152 491.593 C 262.038 492.163,261.203 493.340,260.243 494.286 C 259.304 495.211,258.537 496.105,258.537 496.273 C 258.537 496.442,257.574 497.546,256.397 498.726 C 255.221 499.906,253.592 501.904,252.777 503.167 C 251.810 504.665,250.739 505.815,249.691 506.477 C 248.807 507.035,248.085 507.611,248.084 507.757 C 248.084 507.903,247.254 508.553,246.240 509.202 C 244.373 510.397,241.812 512.942,241.812 513.604 C 241.812 515.291,239.627 516.466,239.087 515.070 C 238.883 514.543,238.291 513.014,237.772 511.672 C 237.253 510.331,236.719 509.155,236.585 509.059 C 236.280 508.841,235.882 507.249,235.648 505.314 C 235.550 504.499,235.307 503.833,235.108 503.833 C 234.868 503.833,234.836 503.154,235.012 501.829 C 235.519 498.010,235.449 497.038,234.664 497.038 C 234.051 497.038,231.853 496.256,230.334 495.497 C 228.868 494.764,230.446 492.740,232.641 492.539 C 234.612 492.358,234.729 492.248,235.175 490.168 C 235.389 489.171,235.881 487.721,236.269 486.944 C 236.841 485.799,236.916 485.268,236.663 484.142 C 236.259 482.340,236.399 482.003,237.833 481.322 C 239.270 480.640,239.373 479.881,238.066 479.593 C 234.832 478.880,234.344 478.300,235.366 476.390 C 236.117 474.987,238.239 473.707,240.418 473.345 C 243.010 472.915,244.309 472.402,245.534 471.326 C 246.699 470.303,247.014 470.207,249.274 470.179 C 252.705 470.137,254.187 469.441,255.029 467.475 C 255.833 465.600,255.795 465.625,258.519 465.187 C 259.727 464.992,261.283 464.537,261.978 464.176 C 262.672 463.814,263.986 463.407,264.897 463.271 C 266.679 463.004,267.313 462.723,269.582 461.195 C 271.257 460.067,271.932 459.166,272.276 457.599 C 272.410 456.988,272.915 456.237,273.409 455.913 C 274.219 455.383,274.281 455.181,274.080 453.718 C 273.694 450.902,275.905 447.070,280.652 442.328 C 284.867 438.117,285.355 437.857,289.808 437.433 C 293.048 437.124,293.114 437.564,290.223 440.180 C 288.523 441.718,287.877 442.626,286.916 444.826 C 285.213 448.728,285.139 449.405,286.198 451.431 C 287.834 454.562,291.011 470.906,291.988 481.215 C 292.384 485.390,292.164 500.914,291.651 505.052 C 291.461 506.585,291.143 509.408,290.945 511.324 C 290.747 513.240,290.506 515.159,290.409 515.587 C 290.313 516.015,290.461 519.543,290.739 523.427 C 291.016 527.310,291.347 532.017,291.473 533.885 L 291.703 537.282 345.173 537.282 L 398.643 537.282 398.439 532.313 C 398.270 528.205,398.325 527.223,398.758 526.651 C 399.424 525.768,399.445 524.238,398.805 523.246 C 397.730 521.581,396.864 516.911,396.864 512.777 C 396.864 510.575,396.629 507.543,396.342 506.041 C 396.054 504.539,395.810 502.448,395.798 501.394 C 395.787 500.340,395.633 498.693,395.456 497.735 C 395.280 496.777,394.902 494.425,394.618 492.509 C 393.626 485.825,393.016 482.139,392.861 481.888 C 392.775 481.749,392.528 480.476,392.312 479.058 C 392.096 477.641,391.465 475.383,390.911 474.042 C 390.357 472.700,389.734 470.662,389.528 469.512 C 389.321 468.362,388.927 466.648,388.653 465.703 C 388.378 464.758,388.153 462.981,388.153 461.753 C 388.153 459.873,387.968 459.182,386.976 457.374 C 386.328 456.193,385.514 454.443,385.167 453.484 C 383.318 448.380,376.808 440.783,369.164 434.810 C 367.631 433.612,364.887 431.113,363.066 429.255 C 359.594 425.712,355.987 422.790,353.550 421.548 C 352.755 421.142,350.207 419.026,347.888 416.845 C 340.288 409.696,335.146 406.969,329.272 406.969 C 327.732 406.969,327.062 406.783,326.138 406.102 C 325.492 405.625,324.407 405.131,323.729 405.003 C 323.050 404.876,321.632 404.391,320.579 403.925 C 319.402 403.404,317.487 402.956,315.604 402.761 C 310.416 402.225,306.855 400.385,306.410 398.013 C 306.135 396.550,307.100 393.844,307.998 393.559 C 308.347 393.448,309.053 392.968,309.566 392.493 C 310.079 392.017,311.103 391.320,311.842 390.943 C 312.580 390.566,313.634 389.589,314.184 388.770 C 315.032 387.507,315.405 387.252,316.657 387.084 C 318.513 386.834,318.820 386.518,319.204 384.465 C 320.007 380.165,329.602 377.198,338.232 378.581 C 339.223 378.740,340.239 378.635,341.342 378.259 C 342.244 377.952,343.640 377.700,344.445 377.700 C 345.646 377.700,346.267 377.422,347.903 376.152 C 351.126 373.650,353.887 373.691,354.946 376.258 C 356.243 379.399,357.310 379.478,359.955 376.629 C 361.640 374.813,362.138 374.483,363.451 374.308 C 364.355 374.187,365.677 373.627,366.677 372.940 C 368.545 371.657,370.273 371.440,371.777 372.300 C 373.208 373.117,374.179 372.946,374.842 371.759 C 375.168 371.174,376.024 369.904,376.742 368.936 C 377.461 367.969,378.049 366.953,378.049 366.679 C 378.049 363.236,381.492 358.663,383.778 359.068 C 386.009 359.465,386.519 359.342,387.591 358.146 C 388.940 356.643,388.767 352.499,387.212 349.036 C 386.012 346.364,385.945 343.825,386.976 340.070 C 388.166 335.735,387.699 329.992,385.867 326.417 C 384.317 323.393,379.999 319.070,378.116 318.656 C 375.940 318.178,374.423 314.371,375.448 311.962 C 376.111 310.406,375.913 305.763,375.064 302.942 C 374.789 302.030,374.564 300.761,374.564 300.124 C 374.564 299.469,374.034 297.964,373.345 296.666 C 372.674 295.402,372.125 293.949,372.125 293.438 C 372.124 292.927,371.497 291.586,370.731 290.458 C 369.965 289.330,369.338 288.311,369.337 288.193 C 369.325 285.630,367.801 279.430,366.886 278.228 C 365.161 275.958,364.722 274.635,364.632 271.429 C 364.586 269.800,364.435 267.431,364.295 266.166 C 364.092 264.323,364.159 263.637,364.631 262.724 C 364.955 262.096,365.442 260.840,365.711 259.932 C 366.085 258.673,366.520 258.071,367.542 257.394 L 368.882 256.507 369.090 253.311 C 369.331 249.579,369.765 248.728,371.723 248.141 C 373.376 247.646,374.564 246.300,374.564 244.923 C 374.564 243.605,375.106 242.271,376.142 241.040 C 378.230 238.559,376.795 233.101,374.055 233.101 C 373.553 233.101,372.561 232.810,371.850 232.454 C 371.139 232.098,370.098 231.695,369.536 231.560 C 368.974 231.424,368.065 230.936,367.516 230.474 C 366.968 230.013,365.893 229.466,365.127 229.260 C 361.484 228.279,360.916 226.355,363.834 224.877 C 366.454 223.550,369.945 221.338,371.777 219.846 C 372.639 219.143,373.918 218.299,374.619 217.970 C 375.897 217.371,376.195 216.881,376.964 214.111 C 377.177 213.345,377.704 212.144,378.135 211.442 C 378.567 210.741,379.390 209.408,379.965 208.481 C 382.313 204.693,381.385 196.819,378.179 193.332 C 377.149 192.212,376.307 191.015,376.307 190.673 C 376.307 189.511,375.334 188.602,373.834 188.363 C 370.385 187.811,368.696 184.286,368.227 176.655 C 367.834 170.270,367.930 169.761,369.862 167.980 C 371.994 166.015,372.781 166.338,373.317 169.400 C 373.640 171.246,374.656 172.424,375.396 171.810 C 376.165 171.172,376.192 161.835,375.434 158.620 C 373.552 150.640,365.634 143.206,356.961 141.276 C 354.199 140.662,352.134 140.694,344.885 141.467 C 340.183 141.968,339.373 141.814,339.373 140.419 C 339.373 140.084,339.135 139.134,338.844 138.309 C 338.553 137.484,338.143 135.701,337.934 134.345 C 337.446 131.184,336.956 130.275,334.980 128.857 C 333.589 127.859,330.193 123.979,327.626 120.453 C 327.201 119.871,326.763 118.676,326.652 117.798 C 326.335 115.284,325.608 114.212,323.200 112.705 C 319.723 110.528,313.090 103.365,312.400 101.041 C 312.041 99.830,311.336 98.655,310.312 97.561 C 309.086 96.250,308.715 95.558,308.517 94.209 C 308.246 92.359,302.349 85.962,298.533 83.376 C 297.362 82.582,296.596 81.684,295.863 80.243 C 293.859 76.301,291.224 73.368,288.943 72.536 C 287.754 72.102,286.421 71.287,285.721 70.565 L 284.528 69.334 284.474 60.712 C 284.438 54.785,284.567 51.301,284.887 49.565 C 285.254 47.582,285.267 46.663,284.949 45.287 C 284.639 43.944,284.643 43.029,284.965 41.367 C 285.196 40.174,285.420 36.990,285.463 34.292 L 285.540 29.385 283.895 26.066 C 282.684 23.624,281.845 22.417,280.721 21.496 C 279.143 20.203,278.605 19.227,278.235 16.996 C 277.463 12.325,267.870 8.268,255.801 7.508 C 251.675 7.248,249.284 6.868,245.819 5.922 C 241.888 4.850,236.857 4.191,229.965 3.845 C 225.519 3.622,222.600 3.294,220.557 2.788 C 217.582 2.050,217.128 2.029,206.098 2.109 C 200.921 2.147,189.742 1.463,187.805 0.990 C 185.971 0.542,164.156 0.328,160.453 0.721 M187.173 3.133 C 188.766 3.515,190.854 3.829,191.813 3.830 C 193.929 3.833,199.694 5.457,202.787 6.922 C 205.914 8.403,209.899 8.787,220.696 8.649 C 229.243 8.539,229.471 8.554,230.696 9.316 C 232.589 10.494,240.442 10.131,241.873 8.800 C 242.775 7.961,242.878 7.946,245.076 8.329 C 246.325 8.546,250.217 8.880,253.726 9.071 C 267.454 9.819,274.980 12.899,276.853 18.538 C 277.260 19.763,278.106 21.037,279.525 22.563 C 283.639 26.985,284.962 33.919,283.080 41.193 C 282.667 42.789,282.643 43.504,282.962 44.768 C 283.296 46.097,283.245 46.859,282.641 49.568 C 282.245 51.339,281.818 54.080,281.691 55.659 C 281.491 58.152,281.316 58.722,280.365 59.975 C 279.762 60.769,278.873 62.051,278.390 62.825 C 276.893 65.223,276.379 65.199,270.307 62.438 C 260.708 58.073,250.816 55.157,247.724 55.780 C 246.868 55.953,245.070 56.249,243.728 56.438 C 238.943 57.114,236.273 57.737,235.347 58.393 C 234.829 58.759,233.646 59.530,232.718 60.105 C 231.789 60.679,230.102 61.967,228.969 62.965 C 226.574 65.074,224.931 66.080,218.482 69.383 C 213.869 71.745,211.153 73.489,207.155 76.655 C 196.605 85.009,196.420 85.107,195.993 82.577 C 195.692 80.796,195.253 80.680,189.764 80.934 C 182.918 81.250,177.332 82.675,176.479 84.325 C 175.871 85.501,174.983 86.063,173.733 86.063 C 169.615 86.063,162.021 91.925,162.021 95.105 C 162.021 96.269,160.845 97.606,158.992 98.552 C 157.564 99.280,155.948 101.350,155.541 102.971 C 155.195 104.350,151.324 108.362,150.339 108.362 C 149.179 108.362,146.195 112.154,145.938 113.954 C 145.808 114.867,146.603 115.249,147.668 114.785 C 147.993 114.644,148.452 114.488,148.689 114.439 C 148.926 114.389,149.604 113.864,150.196 113.272 C 153.159 110.309,151.321 114.124,148.105 117.613 C 146.464 119.394,145.961 122.909,146.823 126.573 C 147.104 127.768,147.425 129.873,147.535 131.250 C 147.646 132.628,147.925 134.196,148.156 134.735 C 148.387 135.273,148.594 136.733,148.616 137.979 C 148.770 146.643,150.299 148.523,152.962 143.323 C 154.629 140.067,156.568 140.860,154.962 144.142 C 154.608 144.864,154.461 147.094,154.402 152.623 L 154.323 160.124 155.366 160.895 C 156.260 161.556,156.424 161.928,156.515 163.499 C 156.683 166.415,156.822 166.394,168.118 161.805 C 170.610 160.793,175.392 158.771,178.746 157.311 C 184.959 154.607,197.996 149.407,203.659 147.374 C 205.383 146.755,210.557 144.723,215.157 142.859 C 219.756 140.995,226.420 138.358,229.965 136.999 C 238.475 133.737,243.771 131.601,247.387 129.974 C 249.016 129.241,251.760 128.169,253.484 127.591 C 255.209 127.014,258.168 125.979,260.059 125.292 C 265.208 123.420,265.180 123.406,265.861 128.230 C 266.785 134.779,268.655 134.278,267.984 127.660 C 267.426 122.147,265.835 122.839,281.185 121.914 C 300.367 120.759,312.525 124.520,325.163 135.519 C 330.394 140.072,330.765 140.104,332.100 136.115 C 334.230 129.750,335.614 130.802,337.684 140.358 C 338.308 143.240,338.784 143.423,344.190 142.859 C 352.236 142.019,355.162 142.020,357.960 142.865 C 367.208 145.658,373.973 153.393,374.477 161.752 C 374.689 165.265,374.398 165.652,372.427 164.489 C 371.095 163.703,371.600 163.534,367.904 166.003 C 367.032 166.586,365.218 167.294,363.676 167.655 C 362.191 168.002,360.231 168.670,359.321 169.141 C 354.331 171.718,352.375 171.984,351.063 170.263 C 349.755 168.548,349.907 168.266,353.054 166.590 C 354.632 165.749,356.786 164.556,357.840 163.939 C 358.894 163.322,360.677 162.286,361.803 161.635 C 365.210 159.668,365.854 158.902,365.854 156.815 C 365.854 152.222,360.482 147.469,353.774 146.127 C 345.650 144.500,342.978 148.071,344.389 158.664 C 344.949 162.875,344.916 163.415,344.092 163.415 C 343.355 163.415,338.758 159.666,337.842 158.318 C 337.386 157.646,336.187 156.392,335.178 155.531 C 332.618 153.345,332.382 153.652,332.024 159.646 C 331.871 162.198,331.503 166.402,331.205 168.990 C 330.907 171.577,330.500 175.105,330.301 176.829 C 328.756 190.206,326.571 195.084,320.732 198.199 C 316.648 200.378,300.660 198.638,292.127 195.086 C 286.811 192.873,280.072 184.397,278.580 178.049 C 277.936 175.308,276.174 170.543,275.507 169.737 C 275.292 169.478,275.010 168.248,274.882 167.004 C 274.526 163.566,272.957 162.791,269.710 164.448 C 267.812 165.416,267.521 165.883,267.985 167.214 C 268.198 167.827,268.312 168.389,268.237 168.464 C 268.030 168.671,265.447 167.362,264.427 166.533 C 263.567 165.834,263.460 165.825,262.207 166.349 C 259.803 167.353,255.052 166.920,255.052 165.696 C 255.052 164.823,256.554 164.118,259.624 163.550 C 262.574 163.004,264.236 162.175,265.876 160.429 C 266.639 159.617,266.835 159.579,269.165 159.790 C 271.810 160.029,272.822 159.597,272.822 158.227 C 272.822 157.160,271.798 154.211,271.129 153.350 C 270.542 152.595,270.530 152.426,270.997 151.491 C 271.594 150.293,271.452 149.075,270.381 146.230 C 269.351 143.494,269.049 143.482,266.488 146.082 C 264.287 148.316,262.601 149.133,260.212 149.127 C 259.769 149.125,257.997 149.365,256.272 149.659 C 254.547 149.953,251.254 150.514,248.955 150.906 C 246.655 151.298,243.049 152.007,240.941 152.481 C 236.091 153.573,230.233 153.580,230.025 152.495 C 229.687 150.732,234.052 147.776,237.812 147.221 C 241.431 146.686,243.074 145.619,240.914 145.206 C 239.717 144.977,237.535 145.472,235.192 146.503 C 234.138 146.967,232.045 147.600,230.542 147.910 C 229.039 148.220,226.530 148.947,224.967 149.526 C 223.404 150.104,219.696 151.444,216.726 152.502 C 210.650 154.667,207.869 155.936,205.560 157.597 C 204.690 158.223,201.912 159.649,199.387 160.764 C 193.635 163.306,193.018 163.881,196.373 163.573 L 198.780 163.352 197.735 164.078 C 197.160 164.477,196.469 164.805,196.199 164.806 C 195.929 164.807,194.361 165.413,192.715 166.152 C 191.068 166.891,188.153 168.081,186.237 168.796 C 168.321 175.483,162.225 181.246,163.367 190.418 C 163.534 191.760,163.598 194.425,163.510 196.341 C 163.350 199.811,163.355 199.833,164.488 201.523 C 165.576 203.144,165.608 203.285,165.199 204.659 C 164.126 208.269,164.026 209.158,164.420 211.546 C 164.774 213.692,164.745 214.037,164.105 215.266 C 163.470 216.484,163.431 216.911,163.722 219.506 C 164.111 222.986,165.263 224.013,166.038 221.571 C 166.679 219.551,168.240 221.468,169.326 225.610 C 170.159 228.788,171.667 231.577,172.808 232.050 C 174.071 232.573,174.093 232.643,174.553 237.631 C 175.096 243.497,175.474 245.765,176.117 247.009 C 177.049 248.812,175.764 250.523,173.477 250.523 C 173.051 250.523,172.424 250.775,172.083 251.084 C 171.510 251.602,171.391 251.589,170.527 250.910 C 168.631 249.418,167.247 250.479,167.247 253.426 L 167.247 255.129 168.380 254.952 C 169.003 254.856,169.887 254.658,170.345 254.513 C 171.156 254.256,171.170 254.285,170.882 255.609 C 170.384 257.904,170.481 260.453,171.067 260.453 C 171.633 260.453,172.335 259.237,172.651 257.708 C 173.016 255.939,174.641 254.645,175.932 255.095 C 177.604 255.678,177.956 256.660,176.897 257.788 C 176.421 258.296,175.916 259.260,175.775 259.930 C 175.634 260.601,174.894 262.464,174.132 264.070 C 173.369 265.677,172.399 268.019,171.975 269.276 C 171.018 272.111,170.796 272.187,169.352 270.177 L 168.193 268.562 168.656 265.583 L 169.120 262.603 167.835 260.134 C 167.128 258.776,166.511 257.123,166.463 256.460 C 166.394 255.494,166.203 255.213,165.505 255.050 C 164.712 254.864,164.631 254.675,164.604 252.933 C 164.585 251.767,164.343 250.668,163.983 250.118 C 163.658 249.623,163.293 248.374,163.171 247.344 C 162.957 245.534,161.666 242.065,161.070 241.696 C 160.909 241.597,160.033 241.675,159.121 241.869 C 156.191 242.494,154.595 240.585,156.062 238.210 C 157.301 236.207,155.982 231.197,153.664 229.099 C 153.266 228.738,152.606 227.884,152.198 227.201 C 150.106 223.693,148.538 222.926,146.044 224.190 C 143.035 225.715,141.087 225.192,141.888 223.075 C 142.745 220.809,141.322 220.124,137.706 221.061 C 136.555 221.359,135.059 221.603,134.380 221.603 C 133.702 221.603,132.718 221.766,132.194 221.965 C 130.928 222.446,129.403 221.902,128.244 220.556 C 127.644 219.859,126.535 219.248,124.857 218.690 C 121.711 217.644,117.746 215.439,112.233 211.669 C 105.543 207.094,101.408 206.778,93.861 210.264 C 80.162 216.594,78.134 237.387,89.720 252.725 C 90.997 254.415,92.683 257.002,93.468 258.474 C 96.363 263.903,103.955 273.746,107.541 276.720 C 108.855 277.810,111.535 280.038,113.497 281.671 C 126.811 292.759,142.814 297.397,152.787 293.059 C 157.030 291.213,156.866 292.503,152.438 295.820 C 149.572 297.965,146.240 299.343,142.683 299.853 C 140.599 300.152,136.453 301.520,135.257 302.304 C 134.420 302.853,134.407 302.929,134.687 305.701 C 134.844 307.261,134.984 314.260,134.998 321.254 C 135.014 329.551,135.168 334.759,135.440 336.237 C 137.120 345.334,137.371 348.763,136.744 354.007 C 134.974 368.794,135.032 368.452,134.153 369.331 C 133.275 370.210,130.893 368.998,129.336 366.882 C 128.254 365.410,126.105 363.564,125.106 363.246 C 124.767 363.139,124.203 362.416,123.853 361.639 C 123.148 360.076,122.173 359.233,121.070 359.233 C 120.380 359.233,119.307 357.368,117.813 353.571 C 117.606 353.043,116.979 352.334,116.420 351.994 C 114.451 350.797,112.208 347.919,111.882 346.172 C 111.512 344.191,110.280 342.816,107.778 341.592 C 105.482 340.469,105.237 340.163,104.672 337.713 C 104.347 336.305,103.923 335.474,103.238 334.900 C 99.856 332.068,94.387 328.045,93.206 327.519 C 92.439 327.177,91.272 326.491,90.612 325.993 C 89.193 324.922,88.922 324.898,87.259 325.691 C 85.562 326.500,84.859 325.702,83.503 321.422 C 82.003 316.688,79.568 311.981,78.172 311.118 C 77.474 310.687,76.578 309.578,75.900 308.306 C 74.675 306.007,69.981 301.332,68.057 300.494 C 67.448 300.229,66.847 299.688,66.721 299.293 C 66.596 298.897,65.707 297.629,64.747 296.475 C 63.786 295.321,62.546 293.374,61.990 292.148 C 61.408 290.865,60.535 289.591,59.932 289.145 C 59.009 288.462,58.885 288.162,58.883 286.607 C 58.879 283.432,56.239 280.769,52.817 280.488 L 50.697 280.314 50.670 278.571 C 50.628 275.782,50.589 275.667,49.176 274.121 C 48.435 273.311,47.551 272.099,47.211 271.429 C 46.872 270.758,46.174 269.660,45.661 268.990 C 45.147 268.319,44.287 267.002,43.748 266.064 C 43.209 265.126,42.103 263.714,41.290 262.928 C 40.277 261.948,39.563 260.809,39.022 259.307 C 38.588 258.102,37.796 256.514,37.263 255.777 C 36.131 254.216,35.545 252.338,35.542 250.270 C 35.541 249.450,35.085 247.676,34.513 246.263 C 31.840 239.669,31.254 238.430,30.345 237.456 C 28.756 235.754,26.902 232.345,26.650 230.662 C 26.521 229.800,25.769 227.918,24.978 226.481 L 23.541 223.868 23.237 218.293 C 23.070 215.226,22.900 209.974,22.861 206.620 C 22.821 203.267,22.594 199.268,22.355 197.735 C 22.117 196.202,21.756 193.772,21.553 192.334 C 21.045 188.731,20.429 187.124,19.183 186.148 C 18.135 185.328,18.118 185.267,18.118 182.140 C 18.118 177.997,17.410 175.205,15.225 170.740 L 13.439 167.089 13.313 162.726 C 13.244 160.326,13.188 157.970,13.188 157.491 C 13.191 155.371,13.911 150.170,14.465 148.277 C 14.974 146.540,15.030 145.499,14.812 141.831 C 14.255 132.433,14.398 123.754,15.172 119.986 C 15.256 119.576,16.015 118.322,16.858 117.199 C 17.701 116.076,18.625 114.368,18.910 113.404 C 21.179 105.744,30.433 94.086,36.585 91.137 C 39.967 89.516,43.959 87.362,45.193 86.492 C 45.729 86.114,47.053 85.389,48.135 84.880 C 50.137 83.939,53.310 80.662,53.310 79.536 C 53.310 79.249,52.761 78.266,52.091 77.352 C 50.112 74.656,50.582 74.219,55.465 74.211 C 59.352 74.204,59.660 74.057,59.516 72.266 C 59.382 70.586,61.353 69.338,64.143 69.338 C 66.044 69.338,66.280 69.115,67.398 66.262 C 67.852 65.104,68.610 63.636,69.083 63.001 C 69.555 62.366,70.222 61.096,70.564 60.178 C 72.279 55.574,82.935 45.601,90.767 41.270 C 94.916 38.976,97.091 36.553,98.444 32.718 C 99.364 30.112,104.165 24.440,106.446 23.265 C 107.213 22.870,109.878 20.560,112.369 18.132 C 117.621 13.013,119.146 12.017,122.790 11.319 C 124.256 11.039,125.894 10.582,126.431 10.305 C 128.722 9.120,135.914 6.903,138.399 6.616 C 139.876 6.445,141.594 6.042,142.217 5.720 C 143.773 4.915,154.440 3.308,162.369 2.684 C 168.683 2.187,184.414 2.472,187.173 3.133 M113.066 64.360 C 110.953 64.868,111.684 65.797,114.497 66.179 C 116.732 66.482,118.467 66.093,118.467 65.288 C 118.467 64.338,115.371 63.806,113.066 64.360 M143.083 120.702 C 142.298 121.899,142.362 122.369,143.293 122.237 C 143.810 122.163,144.116 121.845,144.193 121.301 C 144.373 120.031,143.745 119.692,143.083 120.702 M298.114 131.231 C 297.682 132.356,299.357 133.450,301.500 133.444 C 304.241 133.436,304.580 133.013,302.763 131.866 C 300.804 130.629,298.467 130.310,298.114 131.231 M305.778 133.751 C 305.442 134.294,306.884 135.247,308.335 135.441 C 309.117 135.546,309.756 135.739,309.756 135.871 C 309.756 136.003,310.313 136.727,310.994 137.480 C 312.674 139.338,315.331 142.857,315.331 143.224 C 315.331 143.387,314.574 143.431,313.648 143.322 C 312.622 143.200,310.976 143.348,309.427 143.700 C 306.686 144.323,307.038 144.400,304.649 142.665 C 302.771 141.300,294.666 140.755,291.982 141.813 L 290.210 142.512 286.418 141.593 C 281.013 140.283,280.330 141.013,281.159 147.213 C 281.389 148.937,281.711 151.634,281.873 153.206 C 282.302 157.371,282.446 157.463,285.753 155.701 C 287.875 154.570,288.191 153.986,287.441 152.585 C 286.785 151.360,287.894 151.479,290.834 152.950 C 294.004 154.537,294.170 154.784,294.762 158.820 C 295.185 161.709,295.120 161.912,293.558 162.564 C 292.821 162.872,292.216 163.496,291.818 164.358 C 290.939 166.262,288.150 168.293,286.414 168.293 C 283.312 168.293,288.889 184.605,293.367 188.630 C 299.827 194.437,316.967 196.383,321.867 191.866 C 326.864 187.260,330.719 170.708,328.433 163.681 C 327.879 161.980,327.838 161.382,328.159 159.674 C 328.501 157.849,328.709 154.250,328.610 151.849 C 328.589 151.332,328.204 150.483,327.755 149.961 L 326.939 149.012 324.323 149.459 C 320.385 150.133,318.143 148.224,318.638 144.620 C 319.127 141.063,314.201 135.570,310.499 135.543 C 310.237 135.542,309.487 135.070,308.832 134.495 C 307.687 133.490,306.168 133.120,305.778 133.751 M353.898 147.588 C 358.387 148.627,361.470 151.105,362.886 154.813 C 364.172 158.181,363.636 158.867,356.794 162.625 C 348.062 167.420,346.999 167.088,345.814 159.200 C 344.240 148.721,346.260 145.819,353.898 147.588 M269.830 152.373 C 270.530 152.886,268.309 156.445,267.289 156.446 C 266.426 156.446,264.460 155.011,264.460 154.381 C 264.460 152.674,268.285 151.244,269.830 152.373 M321.761 165.106 C 321.873 165.461,322.493 166.493,323.138 167.400 C 325.077 170.127,324.231 171.107,321.241 169.599 C 319.384 168.663,319.216 168.079,320.213 166.020 C 321.029 164.335,321.439 164.092,321.761 165.106 M322.213 175.454 C 322.902 175.666,322.721 176.289,321.854 176.683 C 320.768 177.178,319.164 176.556,319.164 175.640 C 319.164 174.978,320.411 174.902,322.213 175.454 M363.062 212.805 C 364.714 213.633,365.181 215.003,364.251 216.290 C 362.521 218.680,356.606 220.318,354.556 218.975 C 353.650 218.381,353.574 218.386,352.264 219.122 C 351.111 219.770,350.582 219.851,348.712 219.664 L 346.516 219.443 343.758 221.250 C 340.637 223.296,338.248 223.991,336.094 223.482 C 333.160 222.788,333.706 221.316,337.631 219.341 C 349.837 213.197,359.096 210.818,363.062 212.805 M160.393 214.209 C 159.680 214.661,159.511 216.151,160.089 216.899 C 160.621 217.588,160.633 217.588,161.150 216.919 C 162.023 215.790,161.403 213.569,160.393 214.209 M103.780 215.481 C 104.520 215.868,104.319 215.949,101.702 216.319 C 99.939 216.568,97.933 217.137,96.576 217.772 C 93.461 219.230,92.653 218.903,94.686 217.007 C 97.105 214.751,101.102 214.080,103.780 215.481 M115.244 221.580 C 116.729 222.655,117.262 223.272,116.964 223.571 C 116.551 223.984,113.240 221.557,113.240 220.841 C 113.240 220.331,113.810 220.541,115.244 221.580 M358.504 226.885 C 359.448 229.592,360.646 230.425,364.708 231.196 C 365.774 231.398,366.527 232.247,367.788 234.664 C 368.029 235.126,368.445 235.336,369.007 235.278 C 372.054 234.965,372.919 235.225,373.850 236.732 C 374.862 238.369,374.747 239.151,373.336 240.227 C 372.661 240.742,371.837 241.738,371.507 242.439 C 369.276 247.174,364.325 245.964,359.747 239.565 C 358.822 238.272,358.086 238.511,355.433 240.967 C 353.551 242.709,353.260 242.857,351.718 242.857 C 350.490 242.857,349.835 243.055,349.255 243.599 C 348.538 244.273,348.319 244.305,346.900 243.948 C 344.375 243.312,343.554 243.773,343.554 245.826 C 343.554 248.583,338.687 247.327,336.415 243.984 C 335.295 242.334,335.304 242.268,336.764 241.658 C 338.269 241.029,338.577 240.328,337.841 239.205 C 337.139 238.134,337.931 237.490,340.418 237.109 C 341.280 236.977,342.848 236.382,343.902 235.787 C 345.498 234.887,346.228 234.697,348.265 234.655 C 349.610 234.628,351.053 234.422,351.472 234.198 C 352.125 233.848,352.395 233.930,353.381 234.777 C 356.852 237.758,359.024 237.759,358.170 234.778 C 357.988 234.146,357.837 232.843,357.834 231.884 C 357.830 230.448,357.645 229.931,356.789 228.960 C 355.611 227.624,355.466 226.680,356.359 226.160 C 357.452 225.524,358.106 225.745,358.504 226.885 M128.378 235.310 C 130.425 237.993,130.331 239.940,128.208 238.842 C 127.361 238.404,126.629 238.311,125.367 238.478 L 123.668 238.703 124.538 236.986 C 126.128 233.848,126.980 233.476,128.378 235.310 M363.929 255.375 C 364.046 255.744,363.896 256.635,363.596 257.354 C 363.295 258.074,362.820 259.760,362.540 261.103 C 362.261 262.445,361.894 263.681,361.725 263.850 C 361.335 264.240,357.557 262.720,356.029 261.557 C 354.407 260.323,353.196 260.101,351.466 260.721 C 350.660 261.010,348.619 261.439,346.931 261.673 C 343.933 262.089,343.843 262.129,343.034 263.411 C 341.955 265.120,335.337 265.442,333.757 263.861 C 332.953 263.058,338.512 260.976,341.460 260.976 C 342.476 260.976,343.957 260.674,344.883 260.278 C 349.018 258.510,355.273 256.839,356.618 257.142 C 358.197 257.498,359.265 257.145,360.869 255.737 C 362.230 254.542,363.613 254.378,363.929 255.375 M310.035 261.394 C 310.824 262.182,310.398 262.895,307.945 264.895 C 305.316 267.039,304.771 267.225,303.773 266.322 C 302.667 265.321,303.065 264.689,305.993 262.805 C 309.012 260.862,309.376 260.735,310.035 261.394 M143.361 262.850 C 144.826 263.754,144.994 263.955,144.362 264.046 C 143.177 264.214,140.070 262.440,140.070 261.595 C 140.070 261.125,141.369 261.620,143.361 262.850 M353.677 266.028 C 353.650 266.545,352.870 266.450,352.689 265.907 C 352.592 265.614,352.751 265.484,353.114 265.559 C 353.434 265.625,353.687 265.836,353.677 266.028 M315.025 269.948 C 314.844 270.283,313.663 271.541,312.402 272.744 C 311.141 273.947,309.803 275.532,309.428 276.268 C 307.450 280.143,302.778 279.249,303.320 275.099 C 303.648 272.588,304.012 272.220,307.317 271.054 C 312.319 269.290,315.639 268.814,315.025 269.948 M164.070 286.980 C 165.729 289.129,166.294 290.733,165.626 291.400 C 165.501 291.526,164.548 291.141,163.508 290.546 C 161.840 289.592,161.414 289.491,159.889 289.694 L 158.160 289.923 158.873 288.525 C 159.631 287.040,161.563 284.669,162.015 284.669 C 162.164 284.669,163.089 285.709,164.070 286.980 M362.568 302.011 C 365.854 304.752,367.995 310.576,367.377 315.090 L 367.158 316.688 365.584 315.487 C 364.719 314.826,363.715 314.286,363.353 314.286 C 361.553 314.286,358.625 312.306,357.684 310.453 C 356.962 309.030,357.188 303.003,357.998 302.109 C 358.832 301.187,361.511 301.130,362.568 302.011 M372.107 309.560 C 372.386 309.896,372.479 310.516,372.347 311.172 C 372.221 311.802,372.346 312.746,372.652 313.479 C 373.547 315.621,373.217 316.659,371.786 316.205 C 371.330 316.060,371.038 315.562,370.903 314.702 C 370.793 313.994,370.398 312.338,370.025 311.021 C 369.156 307.947,370.175 307.231,372.107 309.560 M190.530 325.437 C 191.357 325.813,192.423 326.426,192.898 326.799 C 193.373 327.172,194.208 327.576,194.754 327.696 C 196.400 328.058,197.076 329.071,196.581 330.438 C 195.924 332.254,196.054 332.608,197.537 333.053 C 198.845 333.445,201.742 336.187,201.742 337.033 C 201.742 337.256,202.731 337.300,204.483 337.154 C 207.592 336.895,208.154 337.190,207.812 338.900 C 207.417 340.879,208.280 341.330,213.763 342.008 C 222.227 343.054,223.316 343.057,224.815 342.034 C 225.528 341.548,226.659 341.048,227.329 340.922 C 227.999 340.796,228.728 340.475,228.950 340.207 C 229.470 339.581,230.827 339.586,232.002 340.220 C 232.511 340.495,233.792 341.109,234.850 341.586 C 236.885 342.504,238.671 344.613,238.681 346.111 C 238.694 347.888,240.728 348.298,250.871 348.569 C 254.060 348.654,257.266 349.484,261.498 351.320 C 266.045 353.292,269.179 353.670,273.504 352.767 C 276.739 352.093,277.350 352.244,278.585 354.027 C 280.824 357.258,284.456 357.663,286.715 354.933 C 287.429 354.070,288.468 354.221,288.857 355.243 C 289.052 355.757,289.706 356.345,290.409 356.639 C 291.077 356.918,291.886 357.546,292.205 358.034 C 293.330 359.750,299.781 360.679,304.229 359.764 C 305.260 359.552,305.696 359.651,306.566 360.294 C 307.810 361.214,314.279 361.109,317.523 360.117 C 319.991 359.363,323.529 359.369,325.676 360.133 C 327.288 360.706,327.755 360.730,329.972 360.350 C 332.147 359.977,332.610 359.995,333.673 360.500 C 335.483 361.359,339.585 360.399,340.677 358.861 C 341.390 357.858,344.373 356.197,345.842 355.986 C 346.596 355.877,347.724 355.683,348.348 355.555 C 348.997 355.421,349.674 355.479,349.928 355.689 C 350.450 356.122,351.003 355.828,351.329 354.943 C 351.527 354.408,351.805 354.348,353.156 354.551 C 354.375 354.734,355.026 354.640,355.935 354.150 C 356.973 353.592,357.278 353.568,358.361 353.959 C 359.042 354.205,360.045 354.309,360.590 354.189 C 362.027 353.874,363.415 355.574,363.415 357.650 C 363.415 359.448,364.196 360.377,364.784 359.279 C 365.309 358.298,365.248 357.098,364.594 355.533 C 363.970 354.039,364.105 350.848,364.828 349.976 C 365.997 348.568,367.545 349.691,368.759 352.826 C 370.011 356.057,371.915 355.160,370.771 351.878 C 370.465 351.002,370.518 350.753,371.114 350.248 C 371.502 349.920,372.418 349.045,373.149 348.304 C 374.449 346.988,374.511 346.966,375.772 347.383 C 376.975 347.780,377.127 347.747,378.010 346.901 C 378.532 346.402,379.145 345.993,379.374 345.993 C 379.920 345.993,379.900 345.642,379.268 344.130 C 378.398 342.048,379.064 341.914,381.703 343.641 C 383.235 344.644,383.478 344.975,383.823 346.529 C 384.037 347.494,384.653 348.949,385.191 349.762 C 386.441 351.652,386.923 356.271,385.910 356.660 C 385.105 356.969,384.675 356.453,384.283 354.710 C 383.305 350.356,380.321 349.484,379.836 353.411 C 379.633 355.050,379.532 355.205,378.484 355.476 C 377.225 355.802,376.907 357.037,377.875 357.840 C 378.652 358.485,378.522 359.358,377.233 362.146 C 376.593 363.532,375.955 365.129,375.815 365.695 C 375.223 368.091,373.504 370.125,372.330 369.820 C 369.523 369.091,367.366 369.428,365.943 370.819 C 364.770 371.964,364.397 372.125,362.921 372.125 C 361.358 372.125,361.116 372.250,359.549 373.868 C 357.535 375.947,357.419 375.965,356.424 374.354 C 354.365 371.023,350.944 371.087,347.212 374.527 C 346.029 375.618,345.344 375.939,343.524 376.258 C 342.295 376.473,340.761 376.802,340.116 376.988 C 339.232 377.243,338.629 377.195,337.677 376.795 C 336.320 376.225,331.871 376.363,329.136 377.059 C 328.392 377.248,326.981 377.537,326.000 377.700 C 322.663 378.256,315.679 382.149,315.324 383.651 C 315.006 384.999,313.062 386.098,311.452 385.841 C 309.938 385.599,309.888 385.679,310.639 387.132 C 311.273 388.357,310.788 388.751,309.141 388.348 C 307.026 387.831,306.831 387.902,306.600 389.285 C 306.480 390.003,306.121 390.878,305.803 391.230 C 304.567 392.596,304.070 395.018,304.288 398.609 C 304.574 403.296,302.942 405.365,301.788 401.778 C 301.204 399.962,300.204 399.391,298.593 399.952 C 297.238 400.425,296.864 400.232,296.864 399.060 C 296.864 398.162,296.862 398.162,294.592 398.394 C 292.884 398.569,292.291 398.517,292.201 398.181 C 291.558 395.786,291.454 395.645,290.317 395.610 C 288.814 395.563,288.750 395.447,289.386 393.925 C 290.278 391.789,286.324 389.199,282.169 389.199 C 281.071 389.199,279.775 389.018,279.290 388.797 C 278.590 388.477,277.948 388.520,276.158 389.004 C 273.288 389.781,271.527 389.011,270.205 386.403 C 269.764 385.533,269.036 384.631,268.587 384.399 C 266.990 383.571,260.435 381.536,259.360 381.535 C 258.759 381.534,257.819 381.299,257.270 381.013 C 256.721 380.726,255.588 380.491,254.751 380.490 C 252.774 380.487,250.868 379.400,249.992 377.777 C 248.843 375.645,245.602 374.269,241.638 374.232 C 238.686 374.204,233.598 373.541,232.374 373.025 C 232.070 372.897,231.562 372.247,231.245 371.581 C 230.927 370.915,230.264 370.187,229.771 369.962 C 229.277 369.737,228.662 369.047,228.403 368.428 C 227.845 367.093,223.768 363.945,221.919 363.423 C 221.231 363.228,220.316 362.764,219.887 362.392 C 219.458 362.020,218.638 361.612,218.066 361.487 C 217.494 361.361,216.950 360.999,216.858 360.681 C 216.765 360.364,216.462 359.661,216.184 359.118 C 215.907 358.576,215.679 357.662,215.679 357.089 C 215.679 355.773,212.463 352.277,210.281 351.221 C 207.897 350.067,207.514 349.469,208.163 347.915 C 208.980 345.961,208.467 345.296,206.146 345.296 C 204.611 345.296,204.161 345.145,203.458 344.392 C 202.716 343.597,202.406 343.507,200.899 343.649 C 198.941 343.835,197.561 342.819,197.561 341.192 C 197.561 340.016,196.306 338.067,195.366 337.784 C 194.944 337.658,194.094 337.074,193.477 336.488 C 192.390 335.456,192.310 335.437,190.976 335.877 C 189.170 336.473,188.502 336.188,188.502 334.820 C 188.502 334.049,188.184 333.433,187.420 332.718 C 186.468 331.830,186.356 331.529,186.486 330.227 C 186.568 329.412,186.442 328.001,186.206 327.090 C 185.573 324.646,187.317 323.979,190.530 325.437 M221.951 330.998 C 221.951 331.515,220.895 332.404,220.271 332.412 C 219.950 332.416,218.993 332.734,218.145 333.119 C 216.556 333.840,215.857 333.604,216.284 332.490 C 216.843 331.033,221.951 329.688,221.951 330.998 M122.602 376.774 C 123.111 377.387,122.759 377.700,121.565 377.700 C 120.545 377.700,120.023 377.238,120.383 376.655 C 120.696 376.150,122.149 376.228,122.602 376.774 M303.068 404.960 C 303.285 406.080,302.142 408.142,301.568 407.665 C 300.887 407.100,300.905 406.113,301.616 405.027 C 302.227 404.096,302.894 404.065,303.068 404.960 M234.458 481.503 C 235.103 481.911,234.685 482.978,233.985 482.709 C 233.691 482.596,233.449 482.207,233.449 481.844 C 233.449 481.122,233.715 481.032,234.458 481.503 M222.346 484.737 C 223.313 485.280,223.815 485.859,224.083 486.740 C 224.324 487.530,224.944 488.318,225.792 488.915 C 227.538 490.141,228.521 492.102,227.818 492.955 C 226.903 494.066,226.126 496.196,225.802 498.480 C 225.360 501.598,224.758 502.455,223.187 502.200 C 222.518 502.091,221.271 502.179,220.416 502.395 C 218.956 502.762,218.756 502.722,217.170 501.736 C 216.241 501.158,215.125 500.617,214.691 500.534 C 214.257 500.450,213.400 500.126,212.787 499.815 C 211.439 499.129,210.453 498.898,210.453 499.267 C 210.453 500.266,206.628 500.300,204.060 499.323 C 203.591 499.145,203.118 499.088,203.009 499.197 C 201.397 500.809,194.534 497.737,195.716 495.933 C 196.335 494.988,199.341 493.238,199.625 493.657 C 199.916 494.087,201.064 494.489,202.265 494.582 C 202.840 494.627,203.654 494.774,204.075 494.910 C 204.890 495.173,205.565 493.370,205.102 492.165 C 204.992 491.878,205.215 491.351,205.597 490.995 C 206.215 490.419,206.233 490.297,205.760 489.904 C 205.466 489.661,205.224 489.599,205.221 489.766 C 205.208 490.515,204.540 488.928,204.535 488.136 C 204.523 486.076,206.526 485.753,207.439 487.668 C 207.937 488.712,208.169 488.886,208.810 488.696 C 209.235 488.570,209.739 488.431,209.930 488.387 C 210.122 488.344,210.471 488.188,210.706 488.041 C 210.941 487.894,211.934 487.679,212.913 487.563 C 214.251 487.405,215.053 487.050,216.144 486.135 C 218.841 483.873,220.245 483.556,222.346 484.737 M217.220 491.202 C 215.887 492.977,215.721 493.061,214.024 492.817 C 212.606 492.613,212.544 492.642,212.544 493.514 C 212.544 494.015,212.740 494.445,212.979 494.470 C 213.219 494.494,213.807 494.571,214.286 494.640 C 216.746 494.994,217.401 494.852,218.318 493.762 C 218.818 493.168,219.355 492.760,219.510 492.856 C 220.108 493.225,220.550 490.984,219.990 490.423 C 219.133 489.566,218.265 489.811,217.220 491.202 M206.272 496.321 C 206.272 496.811,206.429 497.213,206.620 497.213 C 206.812 497.213,206.969 496.908,206.969 496.536 C 206.969 496.164,206.812 495.763,206.620 495.645 C 206.423 495.522,206.272 495.815,206.272 496.321 M205.171 505.707 C 205.313 506.457,204.693 506.956,203.609 506.963 C 202.712 506.970,202.266 506.029,202.839 505.339 C 203.417 504.642,205.016 504.895,205.171 505.707 M218.264 512.058 C 219.438 512.509,218.538 514.983,217.200 514.983 C 216.246 514.983,215.331 514.270,215.331 513.528 C 215.331 512.280,216.853 511.517,218.264 512.058 " stroke="none" fill="#355C7D" fill-rule="evenodd"></path><path id="path1" d="M162.369 2.684 C 154.440 3.308,143.773 4.915,142.217 5.720 C 141.594 6.042,139.876 6.445,138.399 6.616 C 135.914 6.903,128.722 9.120,126.431 10.305 C 125.894 10.582,124.256 11.039,122.790 11.319 C 119.146 12.017,117.621 13.013,112.369 18.132 C 109.878 20.560,107.213 22.870,106.446 23.265 C 104.165 24.440,99.364 30.112,98.444 32.718 C 97.091 36.553,94.916 38.976,90.767 41.270 C 82.935 45.601,72.279 55.574,70.564 60.178 C 70.222 61.096,69.555 62.366,69.083 63.001 C 68.610 63.636,67.852 65.104,67.398 66.262 C 66.280 69.115,66.044 69.338,64.143 69.338 C 61.353 69.338,59.382 70.586,59.516 72.266 C 59.660 74.057,59.352 74.204,55.465 74.211 C 50.582 74.219,50.112 74.656,52.091 77.352 C 52.761 78.266,53.310 79.249,53.310 79.536 C 53.310 80.662,50.137 83.939,48.135 84.880 C 47.053 85.389,45.729 86.114,45.193 86.492 C 43.959 87.362,39.967 89.516,36.585 91.137 C 30.433 94.086,21.179 105.744,18.910 113.404 C 18.625 114.368,17.701 116.076,16.858 117.199 C 16.015 118.322,15.256 119.576,15.172 119.986 C 14.398 123.754,14.255 132.433,14.812 141.831 C 15.030 145.499,14.974 146.540,14.465 148.277 C 13.911 150.170,13.191 155.371,13.188 157.491 C 13.188 157.970,13.244 160.326,13.313 162.726 L 13.439 167.089 15.225 170.740 C 17.410 175.205,18.118 177.997,18.118 182.140 C 18.118 185.267,18.135 185.328,19.183 186.148 C 20.429 187.124,21.045 188.731,21.553 192.334 C 21.756 193.772,22.117 196.202,22.355 197.735 C 22.594 199.268,22.821 203.267,22.861 206.620 C 22.900 209.974,23.070 215.226,23.237 218.293 L 23.541 223.868 24.978 226.481 C 25.769 227.918,26.521 229.800,26.650 230.662 C 26.902 232.345,28.756 235.754,30.345 237.456 C 31.254 238.430,31.840 239.669,34.513 246.263 C 35.085 247.676,35.541 249.450,35.542 250.270 C 35.545 252.338,36.131 254.216,37.263 255.777 C 37.796 256.514,38.588 258.102,39.022 259.307 C 39.563 260.809,40.277 261.948,41.290 262.928 C 42.103 263.714,43.209 265.126,43.748 266.064 C 44.287 267.002,45.147 268.319,45.661 268.990 C 46.174 269.660,46.872 270.758,47.211 271.429 C 47.551 272.099,48.435 273.311,49.176 274.121 C 50.589 275.667,50.628 275.782,50.670 278.571 L 50.697 280.314 52.817 280.488 C 56.239 280.769,58.879 283.432,58.883 286.607 C 58.885 288.162,59.009 288.462,59.932 289.145 C 60.535 289.591,61.408 290.865,61.990 292.148 C 62.546 293.374,63.786 295.321,64.747 296.475 C 65.707 297.629,66.596 298.897,66.721 299.293 C 66.847 299.688,67.448 300.229,68.057 300.494 C 69.981 301.332,74.675 306.007,75.900 308.306 C 76.578 309.578,77.474 310.687,78.172 311.118 C 79.568 311.981,82.003 316.688,83.503 321.422 C 84.859 325.702,85.562 326.500,87.259 325.691 C 88.922 324.898,89.193 324.922,90.612 325.993 C 91.272 326.491,92.439 327.177,93.206 327.519 C 94.387 328.045,99.856 332.068,103.238 334.900 C 103.923 335.474,104.347 336.305,104.672 337.713 C 105.237 340.163,105.482 340.469,107.778 341.592 C 110.280 342.816,111.512 344.191,111.882 346.172 C 112.208 347.919,114.451 350.797,116.420 351.994 C 116.979 352.334,117.606 353.043,117.813 353.571 C 119.307 357.368,120.380 359.233,121.070 359.233 C 122.173 359.233,123.148 360.076,123.853 361.639 C 124.203 362.416,124.767 363.139,125.106 363.246 C 126.105 363.564,128.254 365.410,129.336 366.882 C 130.893 368.998,133.275 370.210,134.153 369.331 C 135.032 368.452,134.974 368.794,136.744 354.007 C 137.371 348.763,137.120 345.334,135.440 336.237 C 135.168 334.759,135.014 329.551,134.998 321.254 C 134.984 314.260,134.844 307.261,134.687 305.701 C 134.407 302.929,134.420 302.853,135.257 302.304 C 136.453 301.520,140.599 300.152,142.683 299.853 C 146.240 299.343,149.572 297.965,152.438 295.820 C 156.866 292.503,157.030 291.213,152.787 293.059 C 142.814 297.397,126.811 292.759,113.497 281.671 C 111.535 280.038,108.855 277.810,107.541 276.720 C 103.955 273.746,96.363 263.903,93.468 258.474 C 92.683 257.002,90.997 254.415,89.720 252.725 C 78.134 237.387,80.162 216.594,93.861 210.264 C 101.408 206.778,105.543 207.094,112.233 211.669 C 117.746 215.439,121.711 217.644,124.857 218.690 C 126.535 219.248,127.644 219.859,128.244 220.556 C 129.403 221.902,130.928 222.446,132.194 221.965 C 132.718 221.766,133.702 221.603,134.380 221.603 C 135.059 221.603,136.555 221.359,137.706 221.061 C 141.322 220.124,142.745 220.809,141.888 223.075 C 141.087 225.192,143.035 225.715,146.044 224.190 C 148.538 222.926,150.106 223.693,152.198 227.201 C 152.606 227.884,153.266 228.738,153.664 229.099 C 155.982 231.197,157.301 236.207,156.062 238.210 C 154.595 240.585,156.191 242.494,159.121 241.869 C 160.033 241.675,160.909 241.597,161.070 241.696 C 161.666 242.065,162.957 245.534,163.171 247.344 C 163.293 248.374,163.658 249.623,163.983 250.118 C 164.343 250.668,164.585 251.767,164.604 252.933 C 164.631 254.675,164.712 254.864,165.505 255.050 C 166.203 255.213,166.394 255.494,166.463 256.460 C 166.511 257.123,167.128 258.776,167.835 260.134 L 169.120 262.603 168.656 265.583 L 168.193 268.562 169.352 270.177 C 170.796 272.187,171.018 272.111,171.975 269.276 C 172.399 268.019,173.369 265.677,174.132 264.070 C 174.894 262.464,175.634 260.601,175.775 259.930 C 175.916 259.260,176.421 258.296,176.897 257.788 C 177.956 256.660,177.604 255.678,175.932 255.095 C 174.641 254.645,173.016 255.939,172.651 257.708 C 172.335 259.237,171.633 260.453,171.067 260.453 C 170.481 260.453,170.384 257.904,170.882 255.609 C 171.170 254.285,171.156 254.256,170.345 254.513 C 169.887 254.658,169.003 254.856,168.380 254.952 L 167.247 255.129 167.247 253.426 C 167.247 250.479,168.631 249.418,170.527 250.910 C 171.391 251.589,171.510 251.602,172.083 251.084 C 172.424 250.775,173.051 250.523,173.477 250.523 C 175.764 250.523,177.049 248.812,176.117 247.009 C 175.474 245.765,175.096 243.497,174.553 237.631 C 174.093 232.643,174.071 232.573,172.808 232.050 C 171.667 231.577,170.159 228.788,169.326 225.610 C 168.240 221.468,166.679 219.551,166.038 221.571 C 165.263 224.013,164.111 222.986,163.722 219.506 C 163.431 216.911,163.470 216.484,164.105 215.266 C 164.745 214.037,164.774 213.692,164.420 211.546 C 164.026 209.158,164.126 208.269,165.199 204.659 C 165.608 203.285,165.576 203.144,164.488 201.523 C 163.355 199.833,163.350 199.811,163.510 196.341 C 163.598 194.425,163.534 191.760,163.367 190.418 C 162.225 181.246,168.321 175.483,186.237 168.796 C 188.153 168.081,191.068 166.891,192.715 166.152 C 194.361 165.413,195.929 164.807,196.199 164.806 C 196.469 164.805,197.160 164.477,197.735 164.078 L 198.780 163.352 196.373 163.573 C 193.018 163.881,193.635 163.306,199.387 160.764 C 201.912 159.649,204.690 158.223,205.560 157.597 C 207.869 155.936,210.650 154.667,216.726 152.502 C 219.696 151.444,223.404 150.104,224.967 149.526 C 226.530 148.947,229.039 148.220,230.542 147.910 C 232.045 147.600,234.138 146.967,235.192 146.503 C 237.535 145.472,239.717 144.977,240.914 145.206 C 243.074 145.619,241.431 146.686,237.812 147.221 C 234.052 147.776,229.687 150.732,230.025 152.495 C 230.233 153.580,236.091 153.573,240.941 152.481 C 243.049 152.007,246.655 151.298,248.955 150.906 C 251.254 150.514,254.547 149.953,256.272 149.659 C 257.997 149.365,259.769 149.125,260.212 149.127 C 262.601 149.133,264.287 148.316,266.488 146.082 C 269.049 143.482,269.351 143.494,270.381 146.230 C 271.452 149.075,271.594 150.293,270.997 151.491 C 270.530 152.426,270.542 152.595,271.129 153.350 C 271.798 154.211,272.822 157.160,272.822 158.227 C 272.822 159.597,271.810 160.029,269.165 159.790 C 266.835 159.579,266.639 159.617,265.876 160.429 C 264.236 162.175,262.574 163.004,259.624 163.550 C 256.554 164.118,255.052 164.823,255.052 165.696 C 255.052 166.920,259.803 167.353,262.207 166.349 C 263.460 165.825,263.567 165.834,264.427 166.533 C 265.447 167.362,268.030 168.671,268.237 168.464 C 268.312 168.389,268.198 167.827,267.985 167.214 C 267.521 165.883,267.812 165.416,269.710 164.448 C 272.957 162.791,274.526 163.566,274.882 167.004 C 275.010 168.248,275.292 169.478,275.507 169.737 C 276.174 170.543,277.936 175.308,278.580 178.049 C 280.072 184.397,286.811 192.873,292.127 195.086 C 300.660 198.638,316.648 200.378,320.732 198.199 C 326.571 195.084,328.756 190.206,330.301 176.829 C 330.500 175.105,330.907 171.577,331.205 168.990 C 331.503 166.402,331.871 162.198,332.024 159.646 C 332.382 153.652,332.618 153.345,335.178 155.531 C 336.187 156.392,337.386 157.646,337.842 158.318 C 338.758 159.666,343.355 163.415,344.092 163.415 C 344.916 163.415,344.949 162.875,344.389 158.664 C 342.978 148.071,345.650 144.500,353.774 146.127 C 360.482 147.469,365.854 152.222,365.854 156.815 C 365.854 158.902,365.210 159.668,361.803 161.635 C 360.677 162.286,358.894 163.322,357.840 163.939 C 356.786 164.556,354.632 165.749,353.054 166.590 C 349.907 168.266,349.755 168.548,351.063 170.263 C 352.375 171.984,354.331 171.718,359.321 169.141 C 360.231 168.670,362.191 168.002,363.676 167.655 C 365.218 167.294,367.032 166.586,367.904 166.003 C 371.600 163.534,371.095 163.703,372.427 164.489 C 376.270 166.756,375.082 157.809,370.768 151.996 C 364.342 143.338,358.578 141.357,344.190 142.859 C 338.784 143.423,338.308 143.240,337.684 140.358 C 335.614 130.802,334.230 129.750,332.100 136.115 C 330.765 140.104,330.394 140.072,325.163 135.519 C 312.525 124.520,300.367 120.759,281.185 121.914 C 265.835 122.839,267.426 122.147,267.984 127.660 C 268.655 134.278,266.785 134.779,265.861 128.230 C 265.180 123.406,265.208 123.420,260.059 125.292 C 258.168 125.979,255.209 127.014,253.484 127.591 C 251.760 128.169,249.016 129.241,247.387 129.974 C 243.771 131.601,238.475 133.737,229.965 136.999 C 226.420 138.358,219.756 140.995,215.157 142.859 C 210.557 144.723,205.383 146.755,203.659 147.374 C 197.996 149.407,184.959 154.607,178.746 157.311 C 175.392 158.771,170.610 160.793,168.118 161.805 C 156.822 166.394,156.683 166.415,156.515 163.499 C 156.424 161.928,156.260 161.556,155.366 160.895 L 154.323 160.124 154.402 152.623 C 154.461 147.094,154.608 144.864,154.962 144.142 C 156.568 140.860,154.629 140.067,152.962 143.323 C 150.299 148.523,148.770 146.643,148.616 137.979 C 148.594 136.733,148.387 135.273,148.156 134.735 C 147.925 134.196,147.646 132.628,147.535 131.250 C 147.425 129.873,147.104 127.768,146.823 126.573 C 145.961 122.909,146.464 119.394,148.105 117.613 C 149.278 116.341,151.916 112.686,151.916 112.334 C 151.916 111.906,151.139 112.330,150.196 113.272 C 149.604 113.864,148.926 114.389,148.689 114.439 C 148.452 114.488,147.993 114.644,147.668 114.785 C 145.480 115.737,145.376 113.789,147.466 110.976 C 148.919 109.019,149.641 108.362,150.339 108.362 C 151.324 108.362,155.195 104.350,155.541 102.971 C 155.948 101.350,157.564 99.280,158.992 98.552 C 160.845 97.606,162.021 96.269,162.021 95.105 C 162.021 91.925,169.615 86.063,173.733 86.063 C 174.983 86.063,175.871 85.501,176.479 84.325 C 177.332 82.675,182.918 81.250,189.764 80.934 C 195.253 80.680,195.692 80.796,195.993 82.577 C 196.420 85.107,196.605 85.009,207.155 76.655 C 211.153 73.489,213.869 71.745,218.482 69.383 C 224.931 66.080,226.574 65.074,228.969 62.965 C 230.102 61.967,231.789 60.679,232.718 60.105 C 233.646 59.530,234.829 58.759,235.347 58.393 C 236.273 57.737,238.943 57.114,243.728 56.438 C 245.070 56.249,246.868 55.953,247.724 55.780 C 250.816 55.157,260.708 58.073,270.307 62.438 C 276.379 65.199,276.893 65.223,278.390 62.825 C 278.873 62.051,279.762 60.769,280.365 59.975 C 281.316 58.722,281.491 58.152,281.691 55.659 C 281.818 54.080,282.245 51.339,282.641 49.568 C 283.245 46.859,283.296 46.097,282.962 44.768 C 282.643 43.504,282.667 42.789,283.080 41.193 C 284.962 33.919,283.639 26.985,279.525 22.563 C 278.106 21.037,277.260 19.763,276.853 18.538 C 274.980 12.899,267.454 9.819,253.726 9.071 C 250.217 8.880,246.325 8.546,245.076 8.329 C 242.878 7.946,242.775 7.961,241.873 8.800 C 240.442 10.131,232.589 10.494,230.696 9.316 C 229.471 8.554,229.243 8.539,220.696 8.649 C 209.899 8.787,205.914 8.403,202.787 6.922 C 199.694 5.457,193.929 3.833,191.813 3.830 C 190.854 3.829,188.766 3.515,187.173 3.133 C 184.414 2.472,168.683 2.187,162.369 2.684 M117.573 64.451 C 118.745 64.897,118.712 65.700,117.505 66.121 C 116.399 66.506,112.648 66.097,112.080 65.529 C 111.024 64.474,115.383 63.619,117.573 64.451 M144.193 121.301 C 144.116 121.845,143.810 122.163,143.293 122.237 C 142.362 122.369,142.298 121.899,143.083 120.702 C 143.745 119.692,144.373 120.031,144.193 121.301 M302.763 131.866 C 304.580 133.013,304.241 133.436,301.500 133.444 C 299.357 133.450,297.682 132.356,298.114 131.231 C 298.467 130.310,300.804 130.629,302.763 131.866 M308.832 134.495 C 309.487 135.070,310.237 135.542,310.499 135.543 C 314.201 135.570,319.127 141.063,318.638 144.620 C 318.143 148.224,320.385 150.133,324.323 149.459 L 326.939 149.012 327.755 149.961 C 328.204 150.483,328.589 151.332,328.610 151.849 C 328.709 154.250,328.501 157.849,328.159 159.674 C 327.838 161.382,327.879 161.980,328.433 163.681 C 330.719 170.708,326.864 187.260,321.867 191.866 C 317.902 195.520,306.267 195.199,297.520 191.193 C 292.357 188.828,290.060 185.823,287.644 178.274 C 285.128 170.407,284.867 168.293,286.414 168.293 C 288.150 168.293,290.939 166.262,291.818 164.358 C 292.216 163.496,292.821 162.872,293.558 162.564 C 295.120 161.912,295.185 161.709,294.762 158.820 C 294.170 154.784,294.004 154.537,290.834 152.950 C 287.894 151.479,286.785 151.360,287.441 152.585 C 288.191 153.986,287.875 154.570,285.753 155.701 C 282.446 157.463,282.302 157.371,281.873 153.206 C 281.711 151.634,281.389 148.937,281.159 147.213 C 280.330 141.013,281.013 140.283,286.418 141.593 L 290.210 142.512 291.982 141.813 C 294.666 140.755,302.771 141.300,304.649 142.665 C 307.038 144.400,306.686 144.323,309.427 143.700 C 310.976 143.348,312.622 143.200,313.648 143.322 C 314.574 143.431,315.331 143.387,315.331 143.224 C 315.331 142.857,312.674 139.338,310.994 137.480 C 310.313 136.727,309.756 136.003,309.756 135.871 C 309.756 135.739,309.117 135.546,308.335 135.441 C 306.884 135.247,305.442 134.294,305.778 133.751 C 306.168 133.120,307.687 133.490,308.832 134.495 M266.558 152.305 C 264.246 153.228,263.867 154.629,265.633 155.721 C 267.306 156.754,267.611 156.659,269.112 154.638 C 270.874 152.266,269.591 151.095,266.558 152.305 M320.213 166.020 C 319.216 168.079,319.384 168.663,321.241 169.599 C 324.231 171.107,325.077 170.127,323.138 167.400 C 322.493 166.493,321.873 165.461,321.761 165.106 C 321.439 164.092,321.029 164.335,320.213 166.020 M319.164 175.640 C 319.164 176.556,320.768 177.178,321.854 176.683 C 323.360 175.997,322.894 175.476,320.470 175.139 C 319.343 174.982,319.164 175.050,319.164 175.640 M352.613 213.106 C 349.617 213.991,341.786 217.249,337.631 219.341 C 333.706 221.316,333.160 222.788,336.094 223.482 C 338.248 223.991,340.637 223.296,343.758 221.250 L 346.516 219.443 348.712 219.664 C 350.582 219.851,351.111 219.770,352.264 219.122 C 353.574 218.386,353.650 218.381,354.556 218.975 C 356.606 220.318,362.521 218.680,364.251 216.290 C 366.781 212.792,359.981 210.932,352.613 213.106 M161.672 215.679 C 161.672 216.927,160.693 217.681,160.089 216.899 C 159.511 216.151,159.680 214.661,160.393 214.209 C 160.863 213.911,161.672 214.842,161.672 215.679 M98.237 214.950 C 96.143 215.620,93.728 217.445,93.728 218.358 C 93.728 219.013,94.078 218.941,96.576 217.772 C 97.933 217.137,99.939 216.568,101.702 216.319 C 104.319 215.949,104.520 215.868,103.780 215.481 C 102.692 214.912,99.354 214.592,98.237 214.950 M113.240 220.841 C 113.240 221.557,116.551 223.984,116.964 223.571 C 117.262 223.272,116.729 222.655,115.244 221.580 C 113.810 220.541,113.240 220.331,113.240 220.841 M356.359 226.160 C 355.466 226.680,355.611 227.624,356.789 228.960 C 357.645 229.931,357.830 230.448,357.834 231.884 C 357.837 232.843,357.988 234.146,358.170 234.778 C 359.024 237.759,356.852 237.758,353.381 234.777 C 352.395 233.930,352.125 233.848,351.472 234.198 C 351.053 234.422,349.610 234.628,348.265 234.655 C 346.228 234.697,345.498 234.887,343.902 235.787 C 342.848 236.382,341.280 236.977,340.418 237.109 C 337.931 237.490,337.139 238.134,337.841 239.205 C 338.577 240.328,338.269 241.029,336.764 241.658 C 335.304 242.268,335.295 242.334,336.415 243.984 C 338.687 247.327,343.554 248.583,343.554 245.826 C 343.554 243.773,344.375 243.312,346.900 243.948 C 348.319 244.305,348.538 244.273,349.255 243.599 C 349.835 243.055,350.490 242.857,351.718 242.857 C 353.260 242.857,353.551 242.709,355.433 240.967 C 358.086 238.511,358.822 238.272,359.747 239.565 C 364.325 245.964,369.276 247.174,371.507 242.439 C 371.837 241.738,372.661 240.742,373.336 240.227 C 374.747 239.151,374.862 238.369,373.850 236.732 C 372.919 235.225,372.054 234.965,369.007 235.278 C 368.445 235.336,368.029 235.126,367.788 234.664 C 366.527 232.247,365.774 231.398,364.708 231.196 C 360.646 230.425,359.448 229.592,358.504 226.885 C 358.106 225.745,357.452 225.524,356.359 226.160 M125.969 234.708 C 125.661 235.016,125.017 236.042,124.538 236.986 L 123.668 238.703 125.367 238.478 C 126.629 238.311,127.361 238.404,128.208 238.842 C 130.331 239.940,130.425 237.993,128.378 235.310 C 127.393 234.018,126.806 233.871,125.969 234.708 M360.869 255.737 C 359.265 257.145,358.197 257.498,356.618 257.142 C 355.273 256.839,349.018 258.510,344.883 260.278 C 343.957 260.674,342.476 260.976,341.460 260.976 C 338.512 260.976,332.953 263.058,333.757 263.861 C 335.337 265.442,341.955 265.120,343.034 263.411 C 343.843 262.129,343.933 262.089,346.931 261.673 C 348.619 261.439,350.660 261.010,351.466 260.721 C 353.196 260.101,354.407 260.323,356.029 261.557 C 357.557 262.720,361.335 264.240,361.725 263.850 C 361.894 263.681,362.261 262.445,362.540 261.103 C 362.820 259.760,363.295 258.074,363.596 257.354 C 364.689 254.738,363.088 253.788,360.869 255.737 M305.993 262.805 C 303.065 264.689,302.667 265.321,303.773 266.322 C 304.771 267.225,305.316 267.039,307.945 264.895 C 310.398 262.895,310.824 262.182,310.035 261.394 C 309.376 260.735,309.012 260.862,305.993 262.805 M140.070 261.595 C 140.070 262.440,143.177 264.214,144.362 264.046 C 144.994 263.955,144.826 263.754,143.361 262.850 C 141.369 261.620,140.070 261.125,140.070 261.595 M352.689 265.907 C 352.870 266.450,353.650 266.545,353.677 266.028 C 353.687 265.836,353.434 265.625,353.114 265.559 C 352.751 265.484,352.592 265.614,352.689 265.907 M311.672 269.712 C 305.799 270.967,303.682 272.332,303.320 275.099 C 302.778 279.249,307.450 280.143,309.428 276.268 C 309.803 275.532,311.141 273.947,312.402 272.744 C 316.035 269.280,315.920 268.805,311.672 269.712 M160.665 285.898 C 160.072 286.574,159.265 287.756,158.873 288.525 L 158.160 289.923 159.889 289.694 C 161.414 289.491,161.840 289.592,163.508 290.546 C 165.551 291.715,165.854 291.674,165.854 290.232 C 165.854 289.328,162.639 284.669,162.015 284.669 C 161.866 284.669,161.259 285.222,160.665 285.898 M357.998 302.109 C 357.188 303.003,356.962 309.030,357.684 310.453 C 358.625 312.306,361.553 314.286,363.353 314.286 C 363.715 314.286,364.719 314.826,365.584 315.487 L 367.158 316.688 367.377 315.090 C 367.995 310.576,365.854 304.752,362.568 302.011 C 361.511 301.130,358.832 301.187,357.998 302.109 M369.537 308.322 C 369.433 308.490,369.653 309.705,370.025 311.021 C 370.398 312.338,370.793 313.994,370.903 314.702 C 371.038 315.562,371.330 316.060,371.786 316.205 C 373.217 316.659,373.547 315.621,372.652 313.479 C 372.346 312.746,372.221 311.802,372.347 311.172 C 372.630 309.760,370.183 307.278,369.537 308.322 M186.356 325.097 C 185.846 325.395,185.828 325.631,186.206 327.090 C 186.442 328.001,186.568 329.412,186.486 330.227 C 186.356 331.529,186.468 331.830,187.420 332.718 C 188.184 333.433,188.502 334.049,188.502 334.820 C 188.502 336.188,189.170 336.473,190.976 335.877 C 192.310 335.437,192.390 335.456,193.477 336.488 C 194.094 337.074,194.944 337.658,195.366 337.784 C 196.306 338.067,197.561 340.016,197.561 341.192 C 197.561 342.819,198.941 343.835,200.899 343.649 C 202.406 343.507,202.716 343.597,203.458 344.392 C 204.161 345.145,204.611 345.296,206.146 345.296 C 208.467 345.296,208.980 345.961,208.163 347.915 C 207.514 349.469,207.897 350.067,210.281 351.221 C 212.463 352.277,215.679 355.773,215.679 357.089 C 215.679 357.662,215.907 358.576,216.184 359.118 C 216.462 359.661,216.765 360.364,216.858 360.681 C 216.950 360.999,217.494 361.361,218.066 361.487 C 218.638 361.612,219.458 362.020,219.887 362.392 C 220.316 362.764,221.231 363.228,221.919 363.423 C 223.768 363.945,227.845 367.093,228.403 368.428 C 228.662 369.047,229.277 369.737,229.771 369.962 C 230.264 370.187,230.927 370.915,231.245 371.581 C 231.562 372.247,232.070 372.897,232.374 373.025 C 233.598 373.541,238.686 374.204,241.638 374.232 C 245.602 374.269,248.843 375.645,249.992 377.777 C 250.868 379.400,252.774 380.487,254.751 380.490 C 255.588 380.491,256.721 380.726,257.270 381.013 C 257.819 381.299,258.759 381.534,259.360 381.535 C 260.435 381.536,266.990 383.571,268.587 384.399 C 269.036 384.631,269.764 385.533,270.205 386.403 C 271.527 389.011,273.288 389.781,276.158 389.004 C 277.948 388.520,278.590 388.477,279.290 388.797 C 279.775 389.018,281.071 389.199,282.169 389.199 C 286.324 389.199,290.278 391.789,289.386 393.925 C 288.750 395.447,288.814 395.563,290.317 395.610 C 291.454 395.645,291.558 395.786,292.201 398.181 C 292.291 398.517,292.884 398.569,294.592 398.394 C 296.862 398.162,296.864 398.162,296.864 399.060 C 296.864 400.232,297.238 400.425,298.593 399.952 C 300.204 399.391,301.204 399.962,301.788 401.778 C 302.942 405.365,304.574 403.296,304.288 398.609 C 304.070 395.018,304.567 392.596,305.803 391.230 C 306.121 390.878,306.480 390.003,306.600 389.285 C 306.831 387.902,307.026 387.831,309.141 388.348 C 310.788 388.751,311.273 388.357,310.639 387.132 C 309.888 385.679,309.938 385.599,311.452 385.841 C 313.062 386.098,315.006 384.999,315.324 383.651 C 315.679 382.149,322.663 378.256,326.000 377.700 C 326.981 377.537,328.392 377.248,329.136 377.059 C 331.871 376.363,336.320 376.225,337.677 376.795 C 338.629 377.195,339.232 377.243,340.116 376.988 C 340.761 376.802,342.295 376.473,343.524 376.258 C 345.344 375.939,346.029 375.618,347.212 374.527 C 350.944 371.087,354.365 371.023,356.424 374.354 C 357.419 375.965,357.535 375.947,359.549 373.868 C 361.116 372.250,361.358 372.125,362.921 372.125 C 364.397 372.125,364.770 371.964,365.943 370.819 C 367.366 369.428,369.523 369.091,372.330 369.820 C 373.504 370.125,375.223 368.091,375.815 365.695 C 375.955 365.129,376.593 363.532,377.233 362.146 C 378.522 359.358,378.652 358.485,377.875 357.840 C 376.907 357.037,377.225 355.802,378.484 355.476 C 379.532 355.205,379.633 355.050,379.836 353.411 C 380.321 349.484,383.305 350.356,384.283 354.710 C 384.675 356.453,385.105 356.969,385.910 356.660 C 386.923 356.271,386.441 351.652,385.191 349.762 C 384.653 348.949,384.037 347.494,383.823 346.529 C 383.478 344.975,383.235 344.644,381.703 343.641 C 379.064 341.914,378.398 342.048,379.268 344.130 C 379.900 345.642,379.920 345.993,379.374 345.993 C 379.145 345.993,378.532 346.402,378.010 346.901 C 377.127 347.747,376.975 347.780,375.772 347.383 C 374.511 346.966,374.449 346.988,373.149 348.304 C 372.418 349.045,371.502 349.920,371.114 350.248 C 370.518 350.753,370.465 351.002,370.771 351.878 C 371.915 355.160,370.011 356.057,368.759 352.826 C 367.545 349.691,365.997 348.568,364.828 349.976 C 364.105 350.848,363.970 354.039,364.594 355.533 C 365.248 357.098,365.309 358.298,364.784 359.279 C 364.196 360.377,363.415 359.448,363.415 357.650 C 363.415 355.574,362.027 353.874,360.590 354.189 C 360.045 354.309,359.042 354.205,358.361 353.959 C 357.278 353.568,356.973 353.592,355.935 354.150 C 355.026 354.640,354.375 354.734,353.156 354.551 C 351.805 354.348,351.527 354.408,351.329 354.943 C 351.003 355.828,350.450 356.122,349.928 355.689 C 349.674 355.479,348.997 355.421,348.348 355.555 C 347.724 355.683,346.596 355.877,345.842 355.986 C 344.373 356.197,341.390 357.858,340.677 358.861 C 339.585 360.399,335.483 361.359,333.673 360.500 C 332.610 359.995,332.147 359.977,329.972 360.350 C 327.755 360.730,327.288 360.706,325.676 360.133 C 323.529 359.369,319.991 359.363,317.523 360.117 C 314.279 361.109,307.810 361.214,306.566 360.294 C 305.696 359.651,305.260 359.552,304.229 359.764 C 299.781 360.679,293.330 359.750,292.205 358.034 C 291.886 357.546,291.077 356.918,290.409 356.639 C 289.706 356.345,289.052 355.757,288.857 355.243 C 288.468 354.221,287.429 354.070,286.715 354.933 C 284.456 357.663,280.824 357.258,278.585 354.027 C 277.350 352.244,276.739 352.093,273.504 352.767 C 269.179 353.670,266.045 353.292,261.498 351.320 C 257.266 349.484,254.060 348.654,250.871 348.569 C 240.728 348.298,238.694 347.888,238.681 346.111 C 238.671 344.613,236.885 342.504,234.850 341.586 C 233.792 341.109,232.511 340.495,232.002 340.220 C 230.827 339.586,229.470 339.581,228.950 340.207 C 228.728 340.475,227.999 340.796,227.329 340.922 C 226.659 341.048,225.528 341.548,224.815 342.034 C 223.316 343.057,222.227 343.054,213.763 342.008 C 208.280 341.330,207.417 340.879,207.812 338.900 C 208.154 337.190,207.592 336.895,204.483 337.154 C 202.731 337.300,201.742 337.256,201.742 337.033 C 201.742 336.187,198.845 333.445,197.537 333.053 C 196.054 332.608,195.924 332.254,196.581 330.438 C 197.076 329.071,196.400 328.058,194.754 327.696 C 194.208 327.576,193.373 327.172,192.898 326.799 C 190.746 325.106,187.698 324.314,186.356 325.097 M218.593 331.006 C 216.470 331.993,215.871 332.632,216.348 333.404 C 216.538 333.711,217.003 333.637,218.145 333.119 C 218.993 332.734,219.950 332.416,220.271 332.412 C 220.895 332.404,221.951 331.515,221.951 330.998 C 221.951 330.055,220.630 330.058,218.593 331.006 M120.383 376.655 C 120.023 377.238,120.545 377.700,121.565 377.700 C 122.759 377.700,123.111 377.387,122.602 376.774 C 122.149 376.228,120.696 376.150,120.383 376.655 M301.616 405.027 C 300.905 406.113,300.887 407.100,301.568 407.665 C 302.008 408.031,302.176 407.895,302.632 406.803 C 303.527 404.662,302.748 403.300,301.616 405.027 M287.979 437.637 C 285.112 438.077,284.431 438.515,280.542 442.423 C 275.912 447.074,273.700 450.942,274.080 453.718 C 274.281 455.181,274.219 455.383,273.409 455.913 C 272.915 456.237,272.410 456.988,272.276 457.599 C 271.932 459.166,271.257 460.067,269.582 461.195 C 267.313 462.723,266.679 463.004,264.897 463.271 C 263.986 463.407,262.672 463.814,261.978 464.176 C 261.283 464.537,259.727 464.992,258.519 465.187 C 255.795 465.625,255.833 465.600,255.029 467.475 C 254.187 469.441,252.705 470.137,249.274 470.179 C 247.014 470.207,246.699 470.303,245.534 471.326 C 244.309 472.402,243.010 472.915,240.418 473.345 C 238.239 473.707,236.117 474.987,235.366 476.390 C 234.344 478.300,234.832 478.880,238.066 479.593 C 239.373 479.881,239.270 480.640,237.833 481.322 C 236.399 482.003,236.259 482.340,236.663 484.142 C 236.916 485.268,236.841 485.799,236.269 486.944 C 235.881 487.721,235.389 489.171,235.175 490.168 C 234.729 492.248,234.612 492.358,232.641 492.539 C 230.446 492.740,228.868 494.764,230.334 495.497 C 231.853 496.256,234.051 497.038,234.664 497.038 C 235.449 497.038,235.519 498.010,235.012 501.829 C 234.836 503.154,234.868 503.833,235.108 503.833 C 235.307 503.833,235.550 504.499,235.648 505.314 C 235.882 507.249,236.280 508.841,236.585 509.059 C 236.719 509.155,237.253 510.331,237.772 511.672 C 238.291 513.014,238.883 514.543,239.087 515.070 C 239.627 516.466,241.812 515.291,241.812 513.604 C 241.812 512.942,244.373 510.397,246.240 509.202 C 247.254 508.553,248.084 507.903,248.084 507.757 C 248.085 507.611,248.807 507.035,249.691 506.477 C 250.739 505.815,251.810 504.665,252.777 503.167 C 253.592 501.904,255.221 499.906,256.397 498.726 C 257.574 497.546,258.537 496.442,258.537 496.273 C 258.537 496.105,259.304 495.211,260.243 494.286 C 261.203 493.340,262.038 492.163,262.152 491.593 C 262.288 490.914,262.665 490.463,263.299 490.222 C 263.818 490.024,264.899 489.282,265.700 488.572 C 266.501 487.863,267.883 486.675,268.770 485.932 C 269.657 485.190,270.383 484.404,270.383 484.187 C 270.383 483.969,270.697 483.596,271.080 483.356 C 271.463 483.117,272.643 481.605,273.703 479.996 C 278.189 473.185,279.845 472.508,283.131 476.144 C 287.045 480.475,288.140 482.992,289.548 490.907 C 290.090 493.948,289.377 516.354,288.647 519.232 C 287.840 522.415,286.155 533.086,285.935 536.411 C 285.892 537.049,286.136 537.117,288.797 537.210 L 291.705 537.311 291.474 533.900 C 291.348 532.023,291.016 527.310,290.739 523.427 C 290.461 519.543,290.313 516.015,290.409 515.587 C 290.506 515.159,290.747 513.240,290.945 511.324 C 291.143 509.408,291.461 506.585,291.651 505.052 C 292.164 500.914,292.384 485.390,291.988 481.215 C 291.011 470.906,287.834 454.562,286.198 451.431 C 285.139 449.405,285.213 448.728,286.916 444.826 C 287.877 442.626,288.523 441.718,290.223 440.180 C 293.371 437.331,292.965 436.871,287.979 437.637 M233.449 481.844 C 233.449 482.207,233.691 482.596,233.985 482.709 C 234.685 482.978,235.103 481.911,234.458 481.503 C 233.715 481.032,233.449 481.122,233.449 481.844 M218.641 484.458 C 218.066 484.711,216.943 485.465,216.144 486.135 C 215.053 487.050,214.251 487.405,212.913 487.563 C 211.934 487.679,210.941 487.894,210.706 488.041 C 210.471 488.188,210.122 488.344,209.930 488.387 C 209.739 488.431,209.235 488.570,208.810 488.696 C 208.169 488.886,207.937 488.712,207.439 487.668 C 206.526 485.753,204.523 486.076,204.535 488.136 C 204.540 488.928,205.208 490.515,205.221 489.766 C 205.224 489.599,205.466 489.661,205.760 489.904 C 206.233 490.297,206.215 490.419,205.597 490.995 C 205.215 491.351,204.992 491.878,205.102 492.165 C 205.565 493.370,204.890 495.173,204.075 494.910 C 203.654 494.774,202.840 494.627,202.265 494.582 C 201.064 494.489,199.916 494.087,199.625 493.657 C 199.341 493.238,196.335 494.988,195.716 495.933 C 194.534 497.737,201.397 500.809,203.009 499.197 C 203.118 499.088,203.591 499.145,204.060 499.323 C 206.628 500.300,210.453 500.266,210.453 499.267 C 210.453 498.898,211.439 499.129,212.787 499.815 C 213.400 500.126,214.257 500.450,214.691 500.534 C 215.125 500.617,216.241 501.158,217.170 501.736 C 218.756 502.722,218.956 502.762,220.416 502.395 C 221.271 502.179,222.518 502.091,223.187 502.200 C 224.758 502.455,225.360 501.598,225.802 498.480 C 226.126 496.196,226.903 494.066,227.818 492.955 C 228.521 492.102,227.538 490.141,225.792 488.915 C 224.944 488.318,224.324 487.530,224.083 486.740 C 223.432 484.603,220.813 483.505,218.641 484.458 M219.990 490.423 C 220.550 490.984,220.108 493.225,219.510 492.856 C 219.355 492.760,218.818 493.168,218.318 493.762 C 217.401 494.852,216.746 494.994,214.286 494.640 C 213.807 494.571,213.219 494.494,212.979 494.470 C 212.740 494.445,212.544 494.015,212.544 493.514 C 212.544 492.642,212.606 492.613,214.024 492.817 C 215.721 493.061,215.887 492.977,217.220 491.202 C 218.265 489.811,219.133 489.566,219.990 490.423 M206.969 496.536 C 206.969 496.908,206.812 497.213,206.620 497.213 C 206.429 497.213,206.272 496.811,206.272 496.321 C 206.272 495.815,206.423 495.522,206.620 495.645 C 206.812 495.763,206.969 496.164,206.969 496.536 M202.839 505.339 C 202.266 506.029,202.712 506.970,203.609 506.963 C 204.693 506.956,205.313 506.457,205.171 505.707 C 205.016 504.895,203.417 504.642,202.839 505.339 M215.941 512.332 C 214.718 513.260,215.536 514.983,217.200 514.983 C 217.978 514.983,218.815 513.995,218.815 513.079 C 218.815 511.857,217.139 511.422,215.941 512.332 " stroke="none" fill="#C06C84" fill-rule="evenodd"></path><path id="path2" d="M0.000 268.641 C 0.000 447.503,0.116 537.282,0.348 537.282 C 0.577 537.282,0.697 530.529,0.697 517.718 L 0.697 498.154 1.783 495.854 C 2.380 494.589,3.125 493.005,3.438 492.334 C 3.851 491.450,4.534 490.848,5.923 490.145 C 9.631 488.268,14.045 484.216,15.198 481.632 C 15.644 480.632,16.542 479.221,17.193 478.496 C 17.844 477.771,18.859 476.394,19.449 475.436 C 20.999 472.915,21.531 472.681,25.496 472.772 L 28.866 472.849 30.604 471.306 C 31.640 470.386,33.092 469.518,34.202 469.154 C 37.790 467.979,39.168 467.091,44.561 462.478 C 45.723 461.484,47.686 460.187,48.923 459.597 C 50.580 458.806,51.692 457.932,53.146 456.275 C 54.597 454.623,55.428 453.968,56.276 453.809 C 59.647 453.177,68.080 447.077,69.525 444.226 C 70.250 442.795,70.597 442.494,72.089 441.998 C 74.242 441.283,74.547 440.914,75.039 438.419 C 75.431 436.437,75.462 436.397,77.526 435.306 C 79.864 434.070,80.848 433.592,82.467 432.907 C 83.076 432.650,84.208 431.600,84.981 430.576 C 86.625 428.399,93.906 421.722,96.582 419.938 C 97.599 419.260,98.939 418.266,99.559 417.730 C 100.178 417.195,101.354 416.562,102.172 416.325 C 103.272 416.005,104.393 415.163,106.481 413.086 L 109.304 410.279 109.497 408.101 C 109.623 406.685,109.994 405.405,110.559 404.441 C 111.503 402.829,111.933 395.671,111.349 391.289 C 111.118 389.558,111.180 389.257,111.992 388.173 C 113.187 386.579,113.131 385.996,111.493 382.992 C 109.829 379.938,109.813 379.690,111.150 377.582 C 112.354 375.684,112.367 375.558,111.688 372.313 C 111.409 370.980,111.078 367.844,110.953 365.345 L 110.726 360.801 111.852 359.263 C 113.252 357.354,113.258 356.699,111.899 354.556 C 111.305 353.620,110.583 352.055,110.294 351.078 C 110.005 350.102,109.446 348.833,109.052 348.258 C 108.657 347.683,107.937 346.389,107.452 345.383 C 106.967 344.377,106.435 343.554,106.271 343.554 C 105.288 343.554,103.516 341.121,102.836 338.840 C 102.229 336.801,101.921 336.290,100.967 335.746 C 100.340 335.387,99.434 334.739,98.955 334.307 C 98.476 333.875,96.287 332.318,94.092 330.849 L 90.101 328.177 87.627 328.409 C 84.816 328.672,83.324 327.866,82.361 325.561 C 82.103 324.942,81.520 323.888,81.066 323.219 C 80.510 322.400,80.164 321.252,80.005 319.697 C 79.683 316.559,78.502 314.043,76.665 312.581 C 75.742 311.847,74.879 310.725,74.388 309.620 C 73.115 306.758,69.132 303.136,67.258 303.136 C 65.005 303.136,64.460 302.687,64.460 300.827 C 64.460 299.390,64.293 299.070,62.708 297.450 C 61.520 296.237,60.716 295.004,60.213 293.624 C 59.684 292.174,59.111 291.320,58.220 290.657 C 56.439 289.331,56.392 289.227,56.611 287.161 C 56.933 284.125,55.069 281.990,52.521 282.477 C 50.010 282.957,48.084 281.294,48.084 278.646 C 48.084 276.865,47.971 276.705,45.024 274.284 C 44.055 273.488,43.827 273.001,43.524 271.080 C 43.079 268.269,41.934 266.258,40.078 265.030 C 38.605 264.055,37.913 262.905,37.282 260.381 C 37.080 259.572,36.390 258.358,35.745 257.674 C 34.378 256.225,33.798 254.270,33.798 251.116 C 33.798 248.284,30.924 240.627,29.129 238.676 C 26.416 235.728,25.496 234.066,25.052 231.310 C 24.856 230.091,24.111 228.025,23.277 226.389 C 21.641 223.178,21.170 219.018,21.294 208.885 C 21.347 204.609,20.838 198.993,20.322 198.159 C 20.225 198.002,20.156 196.776,20.169 195.433 C 20.207 191.347,19.455 188.903,17.696 187.398 L 16.202 186.119 16.184 182.694 C 16.163 178.675,15.391 176.271,13.360 173.898 C 10.113 170.105,9.880 156.769,12.906 147.974 C 13.555 146.090,13.575 145.652,13.197 141.702 C 12.974 139.367,12.802 133.599,12.816 128.884 C 12.843 119.298,12.898 119.014,15.247 116.299 C 16.211 115.186,16.778 114.118,17.030 112.942 C 17.902 108.875,21.440 102.912,25.433 98.780 C 27.471 96.672,29.624 94.269,30.218 93.439 C 31.607 91.500,33.184 90.350,35.325 89.714 C 36.266 89.435,37.757 88.744,38.640 88.179 C 39.522 87.615,40.687 86.985,41.228 86.780 C 41.770 86.576,42.868 85.960,43.667 85.411 C 44.467 84.863,45.943 84.000,46.946 83.493 C 50.055 81.923,50.853 79.534,49.233 76.651 C 47.962 74.391,48.350 73.479,50.934 72.644 C 51.954 72.315,54.120 71.227,55.749 70.227 C 57.378 69.227,59.766 67.906,61.056 67.291 C 63.702 66.029,64.210 65.453,67.073 60.453 C 68.170 58.537,69.717 56.255,70.510 55.383 C 71.303 54.512,72.814 52.709,73.868 51.378 C 77.008 47.412,81.331 43.863,88.676 39.221 C 95.157 35.124,95.293 34.985,95.310 32.456 C 95.331 29.262,101.354 22.456,105.173 21.312 C 106.997 20.765,109.591 18.696,111.332 16.399 C 114.439 12.301,118.133 10.055,123.345 9.097 C 124.399 8.903,127.535 7.958,130.314 6.997 C 133.584 5.866,136.373 5.137,138.220 4.930 C 140.072 4.724,141.496 4.351,142.276 3.869 C 143.041 3.396,144.538 2.997,146.391 2.771 C 147.993 2.575,150.479 2.194,151.916 1.923 C 158.614 0.662,160.562 0.533,172.997 0.528 C 181.481 0.524,186.160 0.658,187.456 0.941 C 189.802 1.453,200.874 2.147,206.098 2.109 C 217.128 2.029,217.582 2.050,220.557 2.788 C 222.600 3.294,225.519 3.622,229.965 3.845 C 236.857 4.191,241.888 4.850,245.819 5.922 C 249.284 6.868,251.675 7.248,255.801 7.508 C 267.870 8.268,277.463 12.325,278.235 16.996 C 278.605 19.227,279.143 20.203,280.721 21.496 C 281.845 22.417,282.684 23.624,283.895 26.066 L 285.540 29.385 285.463 34.292 C 285.420 36.990,285.196 40.174,284.965 41.367 C 284.643 43.029,284.639 43.944,284.949 45.287 C 285.267 46.663,285.254 47.582,284.887 49.565 C 284.567 51.301,284.438 54.785,284.474 60.712 L 284.528 69.334 285.721 70.565 C 286.421 71.287,287.754 72.102,288.943 72.536 C 291.224 73.368,293.859 76.301,295.863 80.243 C 296.596 81.684,297.362 82.582,298.533 83.376 C 302.349 85.962,308.246 92.359,308.517 94.209 C 308.715 95.558,309.086 96.250,310.312 97.561 C 311.336 98.655,312.041 99.830,312.400 101.041 C 313.090 103.365,319.723 110.528,323.200 112.705 C 325.608 114.212,326.335 115.284,326.652 117.798 C 326.763 118.676,327.201 119.871,327.626 120.453 C 330.193 123.979,333.589 127.859,334.980 128.857 C 336.956 130.275,337.446 131.184,337.934 134.345 C 338.143 135.701,338.553 137.484,338.844 138.309 C 339.135 139.134,339.373 140.084,339.373 140.419 C 339.373 141.814,340.183 141.968,344.885 141.467 C 352.134 140.694,354.199 140.662,356.961 141.276 C 365.634 143.206,373.552 150.640,375.434 158.620 C 376.192 161.835,376.165 171.172,375.396 171.810 C 374.656 172.424,373.640 171.246,373.317 169.400 C 372.781 166.338,371.994 166.015,369.862 167.980 C 367.930 169.761,367.834 170.270,368.227 176.655 C 368.696 184.286,370.385 187.811,373.834 188.363 C 375.334 188.602,376.307 189.511,376.307 190.673 C 376.307 191.015,377.149 192.212,378.179 193.332 C 381.385 196.819,382.313 204.693,379.965 208.481 C 379.390 209.408,378.567 210.741,378.135 211.442 C 377.704 212.144,377.177 213.345,376.964 214.111 C 376.195 216.881,375.897 217.371,374.619 217.970 C 373.918 218.299,372.639 219.143,371.777 219.846 C 369.945 221.338,366.454 223.550,363.834 224.877 C 360.916 226.355,361.484 228.279,365.127 229.260 C 365.893 229.466,366.968 230.013,367.516 230.474 C 368.065 230.936,368.974 231.424,369.536 231.560 C 370.098 231.695,371.139 232.098,371.850 232.454 C 372.561 232.810,373.553 233.101,374.055 233.101 C 376.795 233.101,378.230 238.559,376.142 241.040 C 375.106 242.271,374.564 243.605,374.564 244.923 C 374.564 246.300,373.376 247.646,371.723 248.141 C 369.765 248.728,369.331 249.579,369.090 253.311 L 368.882 256.507 367.542 257.394 C 366.520 258.071,366.085 258.673,365.711 259.932 C 365.442 260.840,364.955 262.096,364.631 262.724 C 364.159 263.637,364.092 264.323,364.295 266.166 C 364.435 267.431,364.586 269.800,364.632 271.429 C 364.722 274.635,365.161 275.958,366.886 278.228 C 367.801 279.430,369.325 285.630,369.337 288.193 C 369.338 288.311,369.965 289.330,370.731 290.458 C 371.497 291.586,372.124 292.927,372.125 293.438 C 372.125 293.949,372.674 295.402,373.345 296.666 C 374.034 297.964,374.564 299.469,374.564 300.124 C 374.564 300.761,374.789 302.030,375.064 302.942 C 375.913 305.763,376.111 310.406,375.448 311.962 C 374.423 314.371,375.940 318.178,378.116 318.656 C 379.999 319.070,384.317 323.393,385.867 326.417 C 387.699 329.992,388.166 335.735,386.976 340.070 C 385.945 343.825,386.012 346.364,387.212 349.036 C 388.767 352.499,388.940 356.643,387.591 358.146 C 386.519 359.342,386.009 359.465,383.778 359.068 C 381.492 358.663,378.049 363.236,378.049 366.679 C 378.049 366.953,377.461 367.969,376.742 368.936 C 376.024 369.904,375.168 371.174,374.842 371.759 C 374.179 372.946,373.208 373.117,371.777 372.300 C 370.273 371.440,368.545 371.657,366.677 372.940 C 365.677 373.627,364.355 374.187,363.451 374.308 C 362.138 374.483,361.640 374.813,359.955 376.629 C 357.310 379.478,356.243 379.399,354.946 376.258 C 353.887 373.691,351.126 373.650,347.903 376.152 C 346.267 377.422,345.646 377.700,344.445 377.700 C 343.640 377.700,342.244 377.952,341.342 378.259 C 340.239 378.635,339.223 378.740,338.232 378.581 C 329.602 377.198,320.007 380.165,319.204 384.465 C 318.820 386.518,318.513 386.834,316.657 387.084 C 315.405 387.252,315.032 387.507,314.184 388.770 C 313.634 389.589,312.580 390.566,311.842 390.943 C 311.103 391.320,310.079 392.017,309.566 392.493 C 309.053 392.968,308.347 393.448,307.998 393.559 C 307.100 393.844,306.135 396.550,306.410 398.013 C 306.855 400.385,310.416 402.225,315.604 402.761 C 317.487 402.956,319.402 403.404,320.579 403.925 C 321.632 404.391,323.050 404.876,323.729 405.003 C 324.407 405.131,325.492 405.625,326.138 406.102 C 327.062 406.783,327.732 406.969,329.272 406.969 C 335.146 406.969,340.288 409.696,347.888 416.845 C 350.207 419.026,352.755 421.142,353.550 421.548 C 355.987 422.790,359.594 425.712,363.066 429.255 C 364.887 431.113,367.631 433.612,369.164 434.810 C 376.808 440.783,383.318 448.380,385.167 453.484 C 385.514 454.443,386.328 456.193,386.976 457.374 C 387.968 459.182,388.153 459.873,388.153 461.753 C 388.153 462.981,388.378 464.758,388.653 465.703 C 388.927 466.648,389.321 468.362,389.528 469.512 C 389.734 470.662,390.357 472.700,390.911 474.042 C 391.465 475.383,392.096 477.641,392.312 479.058 C 392.528 480.476,392.775 481.749,392.861 481.888 C 393.016 482.139,393.626 485.825,394.618 492.509 C 394.902 494.425,395.280 496.777,395.456 497.735 C 395.633 498.693,395.787 500.340,395.798 501.394 C 395.810 502.448,396.054 504.539,396.342 506.041 C 396.629 507.543,396.864 510.575,396.864 512.777 C 396.864 516.911,397.730 521.581,398.805 523.246 C 399.451 524.246,399.439 525.601,398.775 526.615 C 398.363 527.244,398.280 528.179,398.399 530.871 C 398.483 532.768,398.564 534.987,398.579 535.801 C 398.602 537.041,398.720 537.282,399.303 537.282 C 399.999 537.282,400.000 537.050,400.000 268.641 L 400.000 0.000 200.000 0.000 L 0.000 0.000 0.000 268.641 M347.776 147.635 C 345.355 148.828,344.772 152.263,345.814 159.200 C 346.999 167.088,348.062 167.420,356.794 162.625 C 363.636 158.867,364.172 158.181,362.886 154.813 C 360.798 149.345,352.401 145.357,347.776 147.635 " stroke="none" fill="#F8B195" fill-rule="evenodd"></path></g></svg>